<?xml version="1.0" encoding="UTF-8" standalone="no"?>
<!DOCTYPE svg PUBLIC "-//W3C//DTD SVG 1.1//EN"
"http://www.w3.org/Graphics/SVG/1.1/DTD/svg11.dtd">
<svg viewBox="0 0 346 216" version="1.1" xmlns="http://www.w3.org/2000/svg" xmlns:xlink="http://www.w3.org/1999/xlink">
<defs>
<clipPath id="c0"><path d="M173.2,163.4c-30.4,0,-55.1,-24.7,-55.1,-55.1c0,-30.5,24.7,-55.2,55.1,-55.2c30.5,0,55.2,24.7,55.2,55.2c0,30.4,-24.7,55.1,-55.2,55.1Z"/></clipPath>
<clipPath id="c1"><path d="M57.3,114.6V89.3h9.1v25.3Z"/></clipPath>
<clipPath id="c2"><path d="M66.5,114.6V73.7h9.1v40.9Z"/></clipPath>
<clipPath id="c3"><path d="M75.6,114.6V82.9h9.1v31.7Z"/></clipPath>
<clipPath id="c4"><path d="M233.3,125V91.6h103V125Z"/></clipPath>
<style type="text/css"><![CDATA[
.g0{
fill: #00C094;
}
.g1{
fill: #FFFFFF;
}
.g2{
fill: #00665B;
}
.g3{
fill: #008C8D;
}
.g4{
fill: #D8D200;
}
.g5{
fill: #D7D201;
}
.g6{
fill: #D7D302;
}
.g7{
fill: #D6D303;
}
.g8{
fill: #D6D304;
}
.g9{
fill: #D5D305;
}
.ga{
fill: #D5D406;
}
.gb{
fill: #D4D407;
}
.gc{
fill: #D3D408;
}
.gd{
fill: #D3D409;
}
.ge{
fill: #D2D50A;
}
.gf{
fill: #D2D50B;
}
.gg{
fill: #D1D50C;
}
.gh{
fill: #D1D50D;
}
.gi{
fill: #D0D60E;
}
.gj{
fill: #D0D60F;
}
.gk{
fill: #CFD610;
}
.gl{
fill: #CED611;
}
.gm{
fill: #CED712;
}
.gn{
fill: #CDD713;
}
.go{
fill: #CDD714;
}
.gp{
fill: #CCD715;
}
.gq{
fill: #CCD816;
}
.gr{
fill: #CBD817;
}
.gs{
fill: #CAD818;
}
.gt{
fill: #CAD819;
}
.gu{
fill: #C9D91A;
}
.gv{
fill: #C9D91B;
}
.gw{
fill: #C8D91C;
}
.gx{
fill: #C8D91D;
}
.gy{
fill: #C7DA1E;
}
.gz{
fill: #C6DA1F;
}
.g10{
fill: #C6DA20;
}
.g11{
fill: #C5DA21;
}
.g12{
fill: #C5DB22;
}
.g13{
fill: #C4DB23;
}
.g14{
fill: #C4DB24;
}
.g15{
fill: #C3DB25;
}
.g16{
fill: #C2DC26;
}
.g17{
fill: #C2DC27;
}
.g18{
fill: #C1DC28;
}
.g19{
fill: #C1DC29;
}
.g1a{
fill: #C0DD2B;
}
.g1b{
fill: #C0DD2C;
}
.g1c{
fill: #BFDD2D;
}
.g1d{
fill: #BFDD2E;
}
.g1e{
fill: #BEDE2F;
}
.g1f{
fill: #BDDE30;
}
.g1g{
fill: #BDDE31;
}
.g1h{
fill: #BCDE32;
}
.g1i{
fill: #BCDF33;
}
.g1j{
fill: #BBDF34;
}
.g1k{
fill: #BBDF35;
}
.g1l{
fill: #BADF36;
}
.g1m{
fill: #B9E037;
}
.g1n{
fill: #B9E038;
}
.g1o{
fill: #B8E039;
}
.g1p{
fill: #B8E03A;
}
.g1q{
fill: #B7E13B;
}
.g1r{
fill: #B7E13C;
}
.g1s{
fill: #B6E13D;
}
.g1t{
fill: #B5E13E;
}
.g1u{
fill: #B5E23F;
}
.g1v{
fill: #B4E240;
}
.g1w{
fill: #B4E241;
}
.g1x{
fill: #B3E242;
}
.g1y{
fill: #B3E343;
}
.g1z{
fill: #B2E344;
}
.g20{
fill: #B1E345;
}
.g21{
fill: #B1E346;
}
.g22{
fill: #B0E447;
}
.g23{
fill: #B0E448;
}
.g24{
fill: #AFE449;
}
.g25{
fill: #AFE44A;
}
.g26{
fill: #AEE54B;
}
.g27{
fill: #AEE54C;
}
.g28{
fill: #ADE54D;
}
.g29{
fill: #ACE54E;
}
.g2a{
fill: #ACE64F;
}
.g2b{
fill: #ABE650;
}
.g2c{
fill: #ABE651;
}
.g2d{
fill: #AAE652;
}
.g2e{
fill: #AAE753;
}
.g2f{
fill: #A9E754;
}
.g2g{
fill: #01C094;
}
.g2h{
fill: #02C193;
}
.g2i{
fill: #03C193;
}
.g2j{
fill: #04C192;
}
.g2k{
fill: #05C192;
}
.g2l{
fill: #06C292;
}
.g2m{
fill: #07C291;
}
.g2n{
fill: #08C291;
}
.g2o{
fill: #09C291;
}
.g2p{
fill: #0AC390;
}
.g2q{
fill: #0BC390;
}
.g2r{
fill: #0CC38F;
}
.g2s{
fill: #0DC38F;
}
.g2t{
fill: #0EC48F;
}
.g2u{
fill: #0FC48E;
}
.g2v{
fill: #10C48E;
}
.g2w{
fill: #11C48D;
}
.g2x{
fill: #12C58D;
}
.g2y{
fill: #13C58D;
}
.g2z{
fill: #14C58C;
}
.g30{
fill: #15C58C;
}
.g31{
fill: #16C68C;
}
.g32{
fill: #17C68B;
}
.g33{
fill: #18C68B;
}
.g34{
fill: #19C68A;
}
.g35{
fill: #1AC78A;
}
.g36{
fill: #1BC78A;
}
.g37{
fill: #1CC789;
}
.g38{
fill: #1DC789;
}
.g39{
fill: #1EC888;
}
.g3a{
fill: #1FC888;
}
.g3b{
fill: #20C888;
}
.g3c{
fill: #21C887;
}
.g3d{
fill: #22C987;
}
.g3e{
fill: #23C987;
}
.g3f{
fill: #24C986;
}
.g3g{
fill: #25C986;
}
.g3h{
fill: #26CA85;
}
.g3i{
fill: #27CA85;
}
.g3j{
fill: #28CA85;
}
.g3k{
fill: #29CA84;
}
.g3l{
fill: #2ACB84;
}
.g3m{
fill: #2BCB83;
}
.g3n{
fill: #2CCB83;
}
.g3o{
fill: #2DCB83;
}
.g3p{
fill: #2ECC82;
}
.g3q{
fill: #2FCC82;
}
.g3r{
fill: #30CC82;
}
.g3s{
fill: #31CC81;
}
.g3t{
fill: #32CD81;
}
.g3u{
fill: #33CD80;
}
.g3v{
fill: #34CD80;
}
.g3w{
fill: #35CD80;
}
.g3x{
fill: #36CE7F;
}
.g3y{
fill: #37CE7F;
}
.g3z{
fill: #38CE7E;
}
.g40{
fill: #39CE7E;
}
.g41{
fill: #3ACF7E;
}
.g42{
fill: #3BCF7D;
}
.g43{
fill: #3CCF7D;
}
.g44{
fill: #3DCF7D;
}
.g45{
fill: #3ED07C;
}
.g46{
fill: #3FD07C;
}
.g47{
fill: #40D07B;
}
.g48{
fill: #41D07B;
}
.g49{
fill: #42D17B;
}
.g4a{
fill: #43D17A;
}
.g4b{
fill: #44D17A;
}
.g4c{
fill: #45D179;
}
.g4d{
fill: #46D279;
}
.g4e{
fill: #47D279;
}
.g4f{
fill: #48D278;
}
.g4g{
fill: #49D278;
}
.g4h{
fill: #4AD378;
}
.g4i{
fill: #4BD377;
}
.g4j{
fill: #4CD377;
}
.g4k{
fill: #4DD376;
}
.g4l{
fill: #4ED476;
}
.g4m{
fill: #4FD476;
}
.g4n{
fill: #50D475;
}
.g4o{
fill: #51D475;
}
.g4p{
fill: #52D574;
}
.g4q{
fill: #53D574;
}
.g4r{
fill: #54D574;
}
.g4s{
fill: #55D573;
}
.g4t{
fill: #56D673;
}
.g4u{
fill: #57D673;
}
.g4v{
fill: #58D672;
}
.g4w{
fill: #59D672;
}
.g4x{
fill: #5AD771;
}
.g4y{
fill: #5BD771;
}
.g4z{
fill: #5CD771;
}
.g50{
fill: #5DD770;
}
.g51{
fill: #5ED870;
}
.g52{
fill: #5FD86F;
}
.g53{
fill: #60D86F;
}
.g54{
fill: #61D86F;
}
.g55{
fill: #62D96E;
}
.g56{
fill: #63D96E;
}
.g57{
fill: #64D96E;
}
.g58{
fill: #65D96D;
}
.g59{
fill: #66DA6D;
}
.g5a{
fill: #67DA6C;
}
.g5b{
fill: #68DA6C;
}
.g5c{
fill: #69DA6C;
}
.g5d{
fill: #6ADB6B;
}
.g5e{
fill: #6BDB6B;
}
.g5f{
fill: #6CDB6A;
}
.g5g{
fill: #6DDB6A;
}
.g5h{
fill: #6EDC6A;
}
.g5i{
fill: #6FDC69;
}
.g5j{
fill: #70DC69;
}
.g5k{
fill: #72DD69;
}
.g5l{
fill: #73DD68;
}
.g5m{
fill: #74DD68;
}
.g5n{
fill: #75DD67;
}
.g5o{
fill: #76DE67;
}
.g5p{
fill: #77DE67;
}
.g5q{
fill: #78DE66;
}
.g5r{
fill: #79DE66;
}
.g5s{
fill: #7ADF65;
}
.g5t{
fill: #7BDF65;
}
.g5u{
fill: #7CDF65;
}
.g5v{
fill: #7DDF64;
}
.g5w{
fill: #7EE064;
}
.g5x{
fill: #7FE063;
}
.g5y{
fill: #80E063;
}
.g5z{
fill: #81E063;
}
.g60{
fill: #82E162;
}
.g61{
fill: #83E162;
}
.g62{
fill: #84E162;
}
.g63{
fill: #85E161;
}
.g64{
fill: #86E261;
}
.g65{
fill: #87E260;
}
.g66{
fill: #88E260;
}
.g67{
fill: #89E260;
}
.g68{
fill: #8AE35F;
}
.g69{
fill: #8BE35F;
}
.g6a{
fill: #8CE35E;
}
.g6b{
fill: #8DE35E;
}
.g6c{
fill: #8EE45E;
}
.g6d{
fill: #8FE45D;
}
.g6e{
fill: #90E45D;
}
.g6f{
fill: #91E45D;
}
.g6g{
fill: #92E55C;
}
.g6h{
fill: #93E55C;
}
.g6i{
fill: #94E55B;
}
.g6j{
fill: #95E55B;
}
.g6k{
fill: #96E65B;
}
.g6l{
fill: #97E65A;
}
.g6m{
fill: #98E65A;
}
.g6n{
fill: #99E659;
}
.g6o{
fill: #9AE759;
}
.g6p{
fill: #9BE759;
}
.g6q{
fill: #9CE758;
}
.g6r{
fill: #9DE758;
}
.g6s{
fill: #9EE858;
}
.g6t{
fill: #9FE857;
}
.g6u{
fill: #A0E857;
}
.g6v{
fill: #A1E856;
}
.g6w{
fill: #A2E956;
}
.g6x{
fill: #A3E956;
}
.g6y{
fill: #A4E955;
}
.g6z{
fill: #A5E955;
}
.g70{
fill: #A6EA54;
}
.g71{
fill: #A7EA54;
}
.g72{
fill: #A8EA54;
}
.g73{
fill: #A9EA53;
}
.g74{
fill: #AAEB53;
}
.g75{
fill: #ABEB53;
}
.g76{
fill: #ACEB52;
}
.g77{
fill: #ADEB52;
}
.g78{
fill: #AEEC51;
}
.g79{
fill: #AFEC51;
}
.g7a{
fill: #B0EC51;
}
.g7b{
fill: #B1EC50;
}
.g7c{
fill: #B2ED50;
}
.g7d{
fill: #B3ED4F;
}
.g7e{
fill: #B4ED4F;
}
.g7f{
fill: #B5ED4F;
}
.g7g{
fill: #B6EE4E;
}
.g7h{
fill: #B7EE4E;
}
.g7i{
fill: #B8EE4E;
}
.g7j{
fill: #B9EE4D;
}
.g7k{
fill: #BAEF4D;
}
.g7l{
fill: #BBEF4C;
}
.g7m{
fill: #BCEF4C;
}
.g7n{
fill: #BDEF4C;
}
.g7o{
fill: #BEF04B;
}
.g7p{
fill: #BFF04B;
}
.g7q{
fill: #C0F04A;
}
.g7r{
fill: #C1F04A;
}
.g7s{
fill: #C2F14A;
}
.g7t{
fill: #C3F149;
}
.g7u{
fill: #C4F149;
}
.g7v{
fill: #C5F149;
}
.g7w{
fill: #C6F248;
}
.g7x{
fill: #C7F248;
}
.g7y{
fill: #C8F247;
}
.g7z{
fill: #C9F247;
}
.g80{
fill: #CAF347;
}
.g81{
fill: #CBF346;
}
.g82{
fill: #CCF346;
}
.g83{
fill: #CDF345;
}
.g84{
fill: #CEF445;
}
.g85{
fill: #CFF445;
}
.g86{
fill: #D0F444;
}
.g87{
fill: #D1F444;
}
.g88{
fill: #D2F544;
}
.g89{
fill: #D3F543;
}
.g8a{
fill: #D4F543;
}
.g8b{
fill: #D5F542;
}
.g8c{
fill: #D6F642;
}
.g8d{
fill: #D7F642;
}
.g8e{
fill: #D8F641;
}
.g8f{
fill: #D9F641;
}
.g8g{
fill: #DAF740;
}
.g8h{
fill: #DBF740;
}
.g8i{
fill: #DCF740;
}
.g8j{
fill: #DDF73F;
}
.g8k{
fill: #DEF83F;
}
.g8l{
fill: #DFF83F;
}
.g8m{
fill: #E0F83E;
}
.g8n{
fill: #E1F83E;
}
.g8o{
fill: #E2F93D;
}
.g8p{
fill: #E3F93D;
}
.g8q{
fill: #8355F2;
}
.g8r{
fill: #8356F1;
}
.g8s{
fill: #8257F1;
}
.g8t{
fill: #8258F0;
}
.g8u{
fill: #8259F0;
}
.g8v{
fill: #815AEF;
}
.g8w{
fill: #815BEF;
}
.g8x{
fill: #815CEE;
}
.g8y{
fill: #805DEE;
}
.g8z{
fill: #805EED;
}
.g90{
fill: #805FEC;
}
.g91{
fill: #7F60EC;
}
.g92{
fill: #7F61EB;
}
.g93{
fill: #7F62EB;
}
.g94{
fill: #7E63EA;
}
.g95{
fill: #7E64EA;
}
.g96{
fill: #7E65E9;
}
.g97{
fill: #7D66E9;
}
.g98{
fill: #7D67E8;
}
.g99{
fill: #7D68E8;
}
.g9a{
fill: #7C69E7;
}
.g9b{
fill: #7C6AE6;
}
.g9c{
fill: #7C6BE6;
}
.g9d{
fill: #7B6CE5;
}
.g9e{
fill: #7B6DE5;
}
.g9f{
fill: #7B6EE4;
}
.g9g{
fill: #7A6FE4;
}
.g9h{
fill: #7A70E3;
}
.g9i{
fill: #7A71E3;
}
.g9j{
fill: #7972E2;
}
.g9k{
fill: #7973E1;
}
.g9l{
fill: #7974E1;
}
.g9m{
fill: #7875E0;
}
.g9n{
fill: #7876E0;
}
.g9o{
fill: #7877DF;
}
.g9p{
fill: #7778DF;
}
.g9q{
fill: #7779DE;
}
.g9r{
fill: #777ADE;
}
.g9s{
fill: #767BDD;
}
.g9t{
fill: #767CDC;
}
.g9u{
fill: #767DDC;
}
.g9v{
fill: #757EDB;
}
.g9w{
fill: #757FDB;
}
.g9x{
fill: #7580DA;
}
.g9y{
fill: #7481DA;
}
.g9z{
fill: #7482D9;
}
.ga0{
fill: #7483D9;
}
.ga1{
fill: #7384D8;
}
.ga2{
fill: #7385D7;
}
.ga3{
fill: #7386D7;
}
.ga4{
fill: #7287D6;
}
.ga5{
fill: #7288D6;
}
.ga6{
fill: #7289D5;
}
.ga7{
fill: #718AD5;
}
.ga8{
fill: #718BD4;
}
.ga9{
fill: #718CD4;
}
.gaa{
fill: #708DD3;
}
.gab{
fill: #708ED3;
}
.gac{
fill: #708FD2;
}
.gad{
fill: #6F90D1;
}
.gae{
fill: #6F91D1;
}
.gaf{
fill: #6F92D0;
}
.gag{
fill: #6E93D0;
}
.gah{
fill: #6E94CF;
}
.gai{
fill: #6E95CF;
}
.gaj{
fill: #6D96CE;
}
.gak{
fill: #6D97CE;
}
.gal{
fill: #6D98CD;
}
.gam{
fill: #6C99CC;
}
.gan{
fill: #6C9ACC;
}
.gao{
fill: #6C9BCB;
}
.gap{
fill: #6B9CCB;
}
.gaq{
fill: #6B9ECA;
}
.gar{
fill: #6A9FCA;
}
.gas{
fill: #6AA0C9;
}
.gat{
fill: #6AA1C9;
}
.gau{
fill: #69A2C8;
}
.gav{
fill: #69A3C7;
}
.gaw{
fill: #69A4C7;
}
.gax{
fill: #68A5C6;
}
.gay{
fill: #68A6C6;
}
.gaz{
fill: #68A7C5;
}
.gb0{
fill: #67A8C5;
}
.gb1{
fill: #67A9C4;
}
.gb2{
fill: #67AAC4;
}
.gb3{
fill: #66ABC3;
}
.gb4{
fill: #66ACC2;
}
.gb5{
fill: #66ADC2;
}
.gb6{
fill: #65AEC1;
}
.gb7{
fill: #65AFC1;
}
.gb8{
fill: #65B0C0;
}
.gb9{
fill: #64B1C0;
}
.gba{
fill: #64B2BF;
}
.gbb{
fill: #64B3BF;
}
.gbc{
fill: #63B4BE;
}
.gbd{
fill: #63B5BE;
}
.gbe{
fill: #63B6BD;
}
.gbf{
fill: #62B7BC;
}
.gbg{
fill: #62B8BC;
}
.gbh{
fill: #62B9BB;
}
.gbi{
fill: #61BABB;
}
.gbj{
fill: #61BBBA;
}
.gbk{
fill: #61BCBA;
}
.gbl{
fill: #60BDB9;
}
.gbm{
fill: #60BEB9;
}
.gbn{
fill: #60BFB8;
}
.gbo{
fill: #5FC0B7;
}
.gbp{
fill: #5FC1B7;
}
.gbq{
fill: #5FC2B6;
}
.gbr{
fill: #5EC3B6;
}
.gbs{
fill: #5EC4B5;
}
.gbt{
fill: #5EC5B5;
}
.gbu{
fill: #5DC6B4;
}
.gbv{
fill: #5DC7B4;
}
.gbw{
fill: #5DC8B3;
}
.gbx{
fill: #5CC9B2;
}
.gby{
fill: #5CCAB2;
}
.gbz{
fill: #5CCBB1;
}
.gc0{
fill: #5BCCB1;
}
.gc1{
fill: #5BCDB0;
}
.gc2{
fill: #5BCEB0;
}
.gc3{
fill: #5ACFAF;
}
.gc4{
fill: #5AD0AF;
}
.gc5{
fill: #5AD1AE;
}
.gc6{
fill: #59D2AD;
}
.gc7{
fill: #59D3AD;
}
.gc8{
fill: #59D4AC;
}
.gc9{
fill: #58D5AC;
}
.gca{
fill: #58D6AB;
}
.gcb{
fill: #58D7AB;
}
.gcc{
fill: #57D8AA;
}
.gcd{
fill: #57D9AA;
}
.gce{
fill: #57DAA9;
}
.gcf{
fill: #56DBA9;
}
.gcg{
fill: #56DCA8;
}
.gch{
fill: #56DDA7;
}
.gci{
fill: #55DEA7;
}
.gcj{
fill: #55DFA6;
}
.gck{
fill: #55E0A6;
}
.gcl{
fill: #54E1A5;
}
.gcm{
fill: #54E2A5;
}
.gcn{
fill: #54E3A4;
}
.gco{
fill: #53E4A4;
}
.gcp{
fill: #53E5A3;
}
]]></style>
</defs>
<path d="M0,216.5H346.5V0H0V216.5Z" class="g0"/>
<path d="M0,147.8H346.5V67.2H0v80.6Z" class="g1"/>
<path d="M24.8,192.7v4.6c0,.4,-.2,.6,-.5,.7q-.1,0,-.2,0c-3,0,-6,0,-8.9,0c-.4,0,-.7,-.2,-.7,-.6c0,-1.6,0,-3.1,0,-4.7c.1,0,.2,.1,.3,.1c1.5,1,3,1.9,4.6,2.9c.1,.1,.3,.1,.5,0c1.3,-.8,2.6,-1.6,3.8,-2.4c.4,-.2,.7,-.4,1.1,-.6Z" class="g2"/>
<path d="M19.6,190.7h4.5c.4,0,.7,.3,.7,.7q0,.1,-.1,.1c-.9,.6,-1.8,1.1,-2.7,1.7c-.7,.4,-1.5,.9,-2.3,1.4c0,0,-.1,0,-.1,0c-1.3,-.8,-2.5,-1.5,-3.7,-2.3c-.5,-.2,-.9,-.5,-1.4,-.8v-.1c0,-.4,.3,-.7,.7,-.7Z" class="g2"/>
<image clip-path="url(#c0)" preserveAspectRatio="none" x="112" y="51" width="122" height="122" xlink:href="img/1.jpg"/>
<path d="M53.5,123.5q0,-.1,-.1,-.2q.1,.1,.1,.2Z" class="g0"/>
<path d="M53.3,122.8c0,0,0,-.1,0,-.1c0,0,0,.1,0,.1Z" class="g0"/>
<path d="M54.2,124.5c-.1,-.1,-.2,-.2,-.3,-.3c.1,.1,.2,.2,.3,.3Z" class="g0"/>
<path d="M53.4,123.2q0,-.1,-.1,-.2q.1,.1,.1,.2Z" class="g0"/>
<path d="M53.9,124.1q-.1,-.1,-.2,-.2q.1,.1,.2,.2Z" class="g0"/>
<path d="M53.2,122.5c0,0,0,-.1,0,-.2c0,.1,0,.2,0,.2Z" class="g0"/>
<path d="M53.7,123.8q-.1,-.1,-.1,-.2q0,.1,.1,.2Z" class="g0"/>
<path d="M53.3,123c0,0,0,-.1,0,-.2c0,.1,0,.2,0,.2Z" class="g1"/>
<path d="M53.7,123.9c0,0,0,-.1,0,-.1c0,0,0,.1,0,.1Z" class="g1"/>
<path d="M53.6,123.6c-.1,0,-.1,-.1,-.1,-.1c0,0,0,.1,.1,.1Z" class="g1"/>
<path d="M53.2,122.3c0,0,0,-.1,0,-.1c0,0,0,.1,0,.1Z" class="g1"/>
<path d="M53.3,122.7q0,-.1,-.1,-.2q.1,.1,.1,.2Z" class="g1"/>
<path d="M53.4,123.3c0,0,0,-.1,0,-.1c0,0,0,.1,0,.1Z" class="g1"/>
<path d="M53.9,124.2c0,0,0,-.1,0,-.1c0,0,0,.1,0,.1Z" class="g1"/>
<path d="M27.5,137.2L29,114.3c0,-1.1,.9,-1.9,2,-1.9H72.8c1.1,0,1.9,.7,2.1,1.7L78.5,137c.2,1.2,-.8,2.3,-2.1,2.3H29.5c-1.2,0,-2.1,-1,-2,-2.1Z" class="g3"/>
<path d="M27.9,137.2c0,.4,.1,.8,.4,1.2c.3,.3,.7,.5,1.2,.5h47c.4,0,.8,-.2,1.1,-.6c.3,-.3,.5,-.8,.4,-1.3L74.4,114.2c-.1,-.8,-.8,-1.4,-1.6,-1.4H31c-.8,0,-1.5,.7,-1.6,1.5Zm48.6,2.6h-47c-.7,0,-1.4,-.3,-1.8,-.8c-.5,-.5,-.8,-1.2,-.7,-1.9l1.5,-22.9c.1,-1.3,1.2,-2.3,2.5,-2.3H72.8c1.3,0,2.3,.9,2.5,2.1l3.6,22.9c.1,.7,-.1,1.5,-.5,2c-.5,.6,-1.2,.9,-1.9,.9Z" class="g1"/>
<path d="M33.8,129.5l1.5,-22.9c.1,-1.1,.9,-1.9,2,-1.9H79.2c1,0,1.8,.7,2,1.7l3.6,22.9c.2,1.2,-.8,2.4,-2,2.4h-47c-1.2,0,-2.1,-1,-2,-2.2Z" class="g0"/>
<path d="M34.1,129.5c0,.5,.2,.9,.5,1.3c.3,.3,.7,.5,1.2,.5h47c.4,0,.9,-.2,1.2,-.6c.3,-.4,.5,-.9,.4,-1.3L80.8,106.5c-.1,-.8,-.8,-1.4,-1.6,-1.4H37.3c-.9,0,-1.6,.7,-1.6,1.5ZM82.8,132h-47c-.7,0,-1.3,-.2,-1.8,-.7c-.4,-.5,-.7,-1.2,-.6,-1.8l1.5,-22.9c.1,-1.3,1.1,-2.3,2.4,-2.3H79.2c1.1,0,2.2,.9,2.3,2.1l3.6,22.8c.1,.7,-.1,1.4,-.5,2c-.5,.5,-1.1,.8,-1.8,.8Z" class="g1"/>
<image x="38" y="96" width="54" height="29" xlink:href="shade/1.png"/>
<path d="M43.1,97.9c-.9,0,-1.6,.7,-1.7,1.6l-1.5,22.9c0,.4,.1,.9,.4,1.2c.3,.4,.8,.6,1.2,.6h47c.5,0,1,-.3,1.3,-.6c.3,-.4,.4,-.9,.4,-1.4L86.6,99.4c-.2,-.9,-.9,-1.5,-1.7,-1.5Zm45.4,27h-47c-.6,0,-1.3,-.3,-1.7,-.8c-.5,-.4,-.7,-1.1,-.7,-1.8L40.7,99.5c0,-1.3,1.1,-2.3,2.4,-2.3H84.9c1.2,0,2.2,.9,2.4,2l3.6,22.9c.1,.7,-.1,1.4,-.6,2c-.4,.5,-1.1,.8,-1.8,.8Z" class="g1"/>
<path d="M66.5,121.6H44.2c-.3,0,-.5,-.2,-.5,-.5c0,-.3,.2,-.6,.5,-.6H66.5c.3,0,.5,.3,.5,.6c0,.3,-.2,.5,-.5,.5Z" class="g1"/>
<path d="M49.8,108c1.8,0,3.2,-1.4,3.2,-3.2c0,-1.7,-1.4,-3.1,-3.2,-3.1c-1.7,0,-3.1,1.4,-3.1,3.1c0,1.8,1.4,3.2,3.1,3.2Z" class="g1"/>
<path d="M53.7,110.3c-1,-1,-2.3,-1.7,-3.9,-1.7c-1.5,0,-2.9,.7,-3.9,1.7c1.1,.9,2.4,1.5,3.9,1.5c1.5,0,2.9,-.6,3.9,-1.5Z" class="g1"/>
<path d="M49.8,100.1c-3.1,0,-5.7,2.6,-5.7,5.7c0,3.2,2.6,5.8,5.7,5.8c3.2,0,5.8,-2.6,5.8,-5.8c0,-3.1,-2.6,-5.7,-5.8,-5.7m0,11.9c-3.4,0,-6.1,-2.8,-6.1,-6.2c0,-3.3,2.7,-6.1,6.1,-6.1c3.4,0,6.2,2.8,6.2,6.1c0,3.4,-2.8,6.2,-6.2,6.2Z" class="g1"/>
<path d="M49.8,100.2c-3.1,0,-5.6,2.5,-5.6,5.6c0,3.2,2.5,5.7,5.6,5.7c3.2,0,5.7,-2.5,5.7,-5.7c0,-3.1,-2.5,-5.6,-5.7,-5.6m0,11.5c-3.2,0,-5.8,-2.6,-5.8,-5.9c0,-3.2,2.6,-5.8,5.8,-5.8c3.3,0,5.9,2.6,5.9,5.8c0,3.3,-2.6,5.9,-5.9,5.9m0,-11.9c-3.3,0,-6,2.7,-6,6c0,3.4,2.7,6.1,6,6.1c3.4,0,6.1,-2.7,6.1,-6.1c0,-3.3,-2.7,-6,-6.1,-6m0,12.3c-3.4,0,-6.2,-2.8,-6.2,-6.3c0,-3.4,2.8,-6.2,6.2,-6.2c3.5,0,6.3,2.8,6.3,6.2c0,3.5,-2.8,6.3,-6.3,6.3Z" class="g1"/>
<path d="M54.2,114.9h-10c-.2,0,-.3,-.1,-.3,-.3c0,-.2,.1,-.4,.3,-.4h10c.2,0,.3,.2,.3,.4c0,.2,-.1,.3,-.3,.3Z" class="g1"/>
<path d="M56.4,118.1H44.2c-.2,0,-.3,-.2,-.3,-.4c0,-.2,.1,-.3,.3,-.3H56.4c.2,0,.4,.1,.4,.3c0,.2,-.2,.4,-.4,.4Z" class="g1"/>
<path d="M71.2,118.1H59.1c-.2,0,-.4,-.2,-.4,-.4c0,-.2,.2,-.3,.4,-.3H71.2c.2,0,.4,.1,.4,.3c0,.2,-.2,.4,-.4,.4Z" class="g1"/>
<path d="M85.8,118.1H73.7c-.2,0,-.4,-.2,-.4,-.4c0,-.2,.2,-.3,.4,-.3H85.8c.2,0,.4,.1,.4,.3c0,.2,-.2,.4,-.4,.4Z" class="g1"/>
<g clip-path="url(#c1)">
<path d="M57.3,89.3h9.1v25.3H57.3V89.3Z" class="g4"/>
<path d="M66.6,90.1v14.6h1.3c-.9,.6,-1.8,1.1,-2.9,1.6c-2,.9,-4.2,1.3,-6.6,1.3c-.5,0,-1.1,0,-1.7,0h.4V89.1h9.5Z" class="g4"/>
<path d="M66.6,90.1v14.4h1.2c-.9,.6,-1.8,1.1,-2.8,1.6c-2,.9,-4.2,1.3,-6.6,1.3c-.5,0,-1.1,0,-1.7,-.1h.4V89.1h9.5Z" class="g5"/>
<path d="M66.6,90.1v14.2h1.1c-.9,.6,-1.8,1.2,-2.8,1.6c-2,.9,-4.2,1.3,-6.5,1.3c-.5,0,-1.1,0,-1.6,-.1h.3v-18h9.5Z" class="g6"/>
<path d="M66.6,90.1v14h1c-.9,.6,-1.8,1.2,-2.8,1.6c-1.9,.8,-4.1,1.3,-6.4,1.3c-.5,0,-1.1,0,-1.6,-.1h.3V89.1h9.5Z" class="g7"/>
<path d="M66.6,90.1V104h.9c-.9,.6,-1.8,1.1,-2.8,1.5c-1.9,.8,-4,1.3,-6.3,1.3c-.5,0,-1.1,0,-1.6,-.1h.3V89.1h9.5Z" class="g8"/>
<path d="M66.6,90.1v13.7h.8c-.9,.6,-1.8,1.1,-2.8,1.5c-1.9,.8,-4,1.3,-6.2,1.3c-.5,0,-1,0,-1.6,-.1h.3V89.1h9.5Z" class="g9"/>
<path d="M66.6,90.1v13.5h.6c-.8,.6,-1.7,1.1,-2.6,1.5c-1.9,.8,-4,1.3,-6.2,1.3c-.5,0,-1,0,-1.6,-.1h.3V89.1h9.5Z" class="ga"/>
<path d="M66.6,90.1v13.3h.5c-.8,.6,-1.7,1.1,-2.6,1.5c-1.9,.8,-3.9,1.3,-6.1,1.3c-.5,0,-1,0,-1.5,-.1h.2v-17h9.5Z" class="gb"/>
<path d="M66.6,90.1v13.2H67c-.8,.5,-1.7,1,-2.6,1.4c-1.8,.8,-3.8,1.3,-6,1.3c-.5,0,-1,-.1,-1.5,-.1h.2V89.1h9.5Z" class="gc"/>
<path d="M66.6,90.1v13h.3c-.8,.6,-1.7,1,-2.6,1.4c-1.8,.8,-3.8,1.3,-5.9,1.3c-.5,0,-1,-.1,-1.5,-.1h.2V89.1h9.5Z" class="gd"/>
<path d="M66.6,90.1v12.8h.2c-.8,.6,-1.6,1.1,-2.5,1.4c-1.8,.8,-3.8,1.3,-5.9,1.3c-.5,0,-1,-.1,-1.5,-.1h.2V89.1h9.5Z" class="ge"/>
<path d="M66.6,90.1v12.7h.1c-.8,.5,-1.6,1,-2.5,1.4c-1.8,.7,-3.7,1.2,-5.8,1.2c-.5,0,-1,-.1,-1.5,-.1h.2V89.1h9.5Z" class="gf"/>
<path d="M66.6,90.1v11.6h1.1c-.4,.3,-.7,.6,-1.1,.9c-.8,.5,-1.6,1,-2.5,1.4c-1.7,.7,-3.6,1.1,-5.7,1.1c-.5,0,-.9,0,-1.4,0h.1v-16h9.5Z" class="gg"/>
<path d="M66.6,90.1v11.5h1c-.4,.3,-.8,.5,-1.1,.8c-.8,.5,-1.6,1,-2.5,1.4c-1.7,.7,-3.6,1.1,-5.6,1.1c-.4,0,-.9,0,-1.4,0h.1V89.1h9.5Z" class="gh"/>
<path d="M66.6,90.1v11.3h.8c-.3,.3,-.7,.6,-1.1,.8c-.7,.6,-1.5,1,-2.4,1.4c-1.6,.7,-3.5,1.1,-5.5,1.1c-.4,0,-.9,0,-1.4,0h.1V89.1h9.5Z" class="gi"/>
<path d="M66.6,90.1v11.1h.7c-.3,.3,-.7,.6,-1.1,.9c-.7,.5,-1.5,.9,-2.3,1.3c-1.7,.7,-3.5,1.1,-5.5,1.1c-.4,0,-.9,0,-1.4,-.1h.1V89.1h9.5Z" class="gj"/>
<path d="M66.6,90.1v11h.6c-.4,.3,-.7,.5,-1.1,.8c-.7,.5,-1.5,.9,-2.3,1.3c-1.7,.7,-3.5,1.1,-5.4,1.1c-.4,0,-.9,0,-1.4,-.1h.1V89.1h9.5Z" class="gk"/>
<path d="M66.6,90.1v10.8H67c-.3,.3,-.6,.6,-1,.8c-.7,.5,-1.5,.9,-2.3,1.3c-1.6,.7,-3.4,1.1,-5.3,1.1c-.4,0,-.9,0,-1.3,-.1V89.1h9.5Z" class="gl"/>
<path d="M66.6,90.1v9.8h1.3c-2.4,2.5,-5.8,4,-9.5,4c-.4,0,-.9,0,-1.3,-.1V89.1h9.5Z" class="gm"/>
<path d="M66.6,90.1v9.6h1.1c-2.4,2.5,-5.6,4,-9.3,4c-.4,0,-.9,0,-1.3,-.1V89.1h9.5Z" class="gn"/>
<path d="M66.6,90.1v9.5h1c-2.4,2.4,-5.6,3.9,-9.2,3.9c-.8,0,-1.7,-.1,-2.6,-.3h1.3V89.1h9.5Z" class="go"/>
<path d="M66.6,90.1v9.3h.8c-2.3,2.4,-5.4,3.9,-9,3.9c-.8,0,-1.7,-.1,-2.5,-.3h1.2V89.1h9.5Z" class="gp"/>
<path d="M66.6,90.1v9.2h.7c-2.3,2.3,-5.4,3.8,-8.9,3.8c-.8,0,-1.7,-.1,-2.5,-.3h1.2V89.1h9.5Z" class="gq"/>
<path d="M66.6,90.1v9h.5c-2.2,2.3,-5.3,3.7,-8.7,3.7c-.8,0,-1.6,0,-2.4,-.2h1.1V89.1h9.5Z" class="gr"/>
<path d="M66.6,90.1V99H67c-2.2,2.2,-5.2,3.6,-8.6,3.6c-.8,0,-1.6,0,-2.4,-.2h1.1V89.1h9.5Z" class="gs"/>
<path d="M66.6,90.1v8.7h.3c-2.2,2.3,-5.2,3.6,-8.5,3.6c-.8,0,-1.6,-.1,-2.3,-.2h1V89.1h9.5Z" class="gt"/>
<path d="M66.6,90.1v8.6h.1c-2.1,2.2,-5,3.5,-8.3,3.5c-.8,0,-1.5,-.1,-2.3,-.2h1V89.1h9.5Z" class="gu"/>
<path d="M66.6,90.1v7.6h.7c-.2,.3,-.5,.6,-.7,.8c-2.1,2.2,-5,3.5,-8.2,3.5c-.7,0,-1.5,-.1,-2.3,-.2h1V89.1h9.5Z" class="gv"/>
<path d="M66.6,90.1v6.6h1.2c-.4,.6,-.9,1.2,-1.4,1.7c-2,2.1,-4.8,3.4,-8,3.4c-.7,0,-1.5,-.1,-2.2,-.2h.9V89.1h9.5Z" class="gw"/>
<path d="M66.6,90.1v6.4h1c-.4,.7,-.8,1.2,-1.3,1.7c-2,2.1,-4.8,3.4,-7.9,3.4c-.7,0,-1.5,-.1,-2.2,-.2h.9V89.1h9.5Z" class="gx"/>
<path d="M66.6,90.1v6.3h.9c-.4,.6,-.9,1.2,-1.4,1.7c-1.9,2,-4.6,3.3,-7.7,3.3c-.7,0,-1.4,-.1,-2.1,-.2h.8V89.1h9.5Z" class="gy"/>
<path d="M66.6,90.1v6.2h.7c-.4,.6,-.8,1.1,-1.3,1.6c-1.9,2,-4.6,3.3,-7.6,3.3c-.7,0,-1.4,-.1,-2.1,-.2h.8V89.1h9.5Z" class="gz"/>
<path d="M66.6,90.1v6.1h.5c-.3,.6,-.8,1.1,-1.2,1.6c-1.9,2,-4.6,3.2,-7.5,3.2c-.7,0,-1.4,-.1,-2.1,-.2h.8V89.1h9.5Z" class="g10"/>
<path d="M66.6,90.1v4.2h1.3c-.5,1.2,-1.2,2.4,-2.2,3.3c-1.8,2,-4.4,3.2,-7.3,3.2c-.7,0,-1.4,-.1,-2,-.3h.7V89.1h9.5Z" class="g11"/>
<path d="M66.6,90.1v4.1h1.1c-.5,1.2,-1.2,2.4,-2.1,3.3c-1.8,1.9,-4.4,3.1,-7.2,3.1c-.6,0,-1.3,-.1,-2,-.3h.7V89.1h9.5Z" class="g12"/>
<path d="M66.6,90.1v4h1c-.5,1.2,-1.3,2.3,-2.2,3.3c-1.8,1.8,-4.2,2.9,-7,2.9c-.6,0,-1.3,0,-1.9,-.2h.6v-11h9.5Z" class="g13"/>
<path d="M66.6,90.1V94h.8c-.5,1.2,-1.2,2.3,-2.1,3.2c-1.8,1.8,-4.2,2.9,-6.9,2.9c-.6,0,-1.3,0,-1.9,-.2h.6V89.1h9.5Z" class="g14"/>
<path d="M67.9,90.1c0,5.4,-4.2,9.8,-9.5,9.8c-.6,0,-1.2,0,-1.9,-.2h.6V89.1h9.5v1Z" class="g15"/>
<path d="M67.7,90.1c0,5.3,-4.1,9.6,-9.3,9.6c-.6,0,-1.2,0,-1.8,-.2h.5V89.1h9.5v1Z" class="g16"/>
<path d="M67.5,90.1c0,5.2,-4,9.4,-9.1,9.4c-.6,0,-1.2,-.1,-1.8,-.2h.5V89.1h9.5v1Z" class="g17"/>
<path d="M67.3,90.1c0,5.1,-4,9.2,-8.9,9.2c-.6,0,-1.2,-.1,-1.7,-.2h.4v-10h9.5v1Z" class="g18"/>
<path d="M67.1,90.1c0,5,-3.9,9,-8.7,9c-.5,0,-1.1,-.1,-1.7,-.2h.4V89.1h9.5v1Z" class="g19"/>
<path d="M66.9,90.1c0,4.9,-3.8,8.8,-8.5,8.8c-.5,0,-1.1,-.1,-1.7,-.2h.4V89.1h9.5v1Z" class="g1a"/>
<path d="M66.7,90.1c0,4.8,-3.7,8.6,-8.3,8.6c-.5,0,-1.1,-.1,-1.6,-.2h.3V89.1h9.4v-.7c.2,.6,.2,1.1,.2,1.7Z" class="g1b"/>
<path d="M66.5,90.1c0,4.6,-3.6,8.4,-8.1,8.4c-.5,0,-1.1,-.1,-1.6,-.2h.3V89.1h9.3v-.7c.1,.6,.1,1.2,.1,1.7Z" class="g1c"/>
<path d="M66.3,90.1c0,4.5,-3.5,8.2,-7.9,8.2c-.5,0,-1,-.1,-1.5,-.2h.2v-9h9.1v-.6c.1,.5,.1,1.1,.1,1.6Z" class="g1d"/>
<path d="M66.1,90.1c0,4.4,-3.4,8,-7.7,8c-.5,0,-1,-.1,-1.5,-.2h.2V89.1H66v-.6c.1,.5,.1,1.1,.1,1.6Z" class="g1e"/>
<path d="M65.9,90.1c0,4.3,-3.3,7.7,-7.5,7.7c-.5,0,-1,0,-1.5,-.1h.2V89.1h8.7v-.5c.1,.5,.1,1,.1,1.5Z" class="g1f"/>
<path d="M65.7,90.1c0,4.2,-3.2,7.5,-7.3,7.5c-.5,0,-.9,0,-1.4,-.1h.1V89.1h8.5v-.5c.1,.5,.1,1,.1,1.5Z" class="g1g"/>
<path d="M65.5,90.1c0,4.1,-3.2,7.3,-7.1,7.3c-.4,0,-.9,0,-1.4,-.1h.1V89.1h8.3v-.4c.1,.4,.1,.9,.1,1.4Z" class="g1h"/>
<path d="M65.3,90.1c0,3.9,-3.1,7.1,-6.9,7.1c-.4,0,-.9,0,-1.3,-.1v-8h8.1v-.4c.1,.5,.1,.9,.1,1.4Z" class="g1i"/>
<path d="M65.1,90.1c0,3.8,-3,6.9,-6.7,6.9c-.9,0,-1.7,-.2,-2.5,-.5h1.2V89.1H65v-.4c.1,.5,.1,1,.1,1.4Z" class="g1j"/>
<path d="M64.9,90.1c0,3.7,-2.9,6.7,-6.5,6.7c-.8,0,-1.7,-.2,-2.5,-.5h1.2V89.1h7.7v-.3c.1,.4,.1,.9,.1,1.3Z" class="g1k"/>
<path d="M64.7,90.1c0,3.6,-2.8,6.5,-6.3,6.5c-.8,0,-1.6,-.2,-2.4,-.5h1.1v-7h7.5v-.3c.1,.4,.1,.9,.1,1.3Z" class="g1l"/>
<path d="M64.5,90.1c0,3.5,-2.7,6.3,-6.1,6.3c-.8,0,-1.6,-.2,-2.3,-.5h1V89.1h7.3v-.2c.1,.4,.1,.8,.1,1.2Z" class="g1m"/>
<path d="M64.3,90.1c0,3.4,-2.6,6.1,-5.9,6.1c-.8,0,-1.5,-.2,-2.2,-.5h.9V89.1h7.1v-.2c.1,.4,.1,.8,.1,1.2Z" class="g1n"/>
<path d="M64.1,90.1c0,3.3,-2.5,5.9,-5.7,5.9c-.7,0,-1.5,-.2,-2.1,-.5h.8V89.1h6.6V87.9c.2,.7,.4,1.4,.4,2.2Z" class="g1o"/>
<path d="M63.9,90.1c0,3.1,-2.4,5.7,-5.5,5.7c-.7,0,-1.4,-.2,-2.1,-.5h.8V89.1h6.4V87.9c.2,.7,.4,1.5,.4,2.2Z" class="g1p"/>
<path d="M63.7,90.1c0,3,-2.4,5.5,-5.3,5.5c-.7,0,-1.4,-.2,-2,-.5h.7v-6h6.2V88c.2,.7,.4,1.4,.4,2.1Z" class="g1q"/>
<path d="M63.5,90.1c0,2.9,-2.3,5.2,-5.1,5.2c-.6,0,-1.3,-.1,-1.9,-.4h.6V89.1h6v-1c.2,.6,.4,1.3,.4,2Z" class="g1r"/>
<path d="M63.3,90.1c0,2.8,-2.2,5,-4.9,5c-.6,0,-1.3,-.1,-1.8,-.4h.5V89.1h5.8v-.9c.3,.6,.4,1.2,.4,1.9Z" class="g1s"/>
<path d="M63.1,90.1c0,2.7,-2.1,4.8,-4.7,4.8c-.6,0,-1.2,-.1,-1.8,-.4h.5V89.1h5.6v-.8c.3,.5,.4,1.2,.4,1.8Z" class="g1t"/>
<path d="M62.9,90.1c0,2.6,-2,4.6,-4.5,4.6c-.6,0,-1.1,-.1,-1.7,-.3h.4V89.1h5.4v-.8c.3,.6,.4,1.2,.4,1.8Z" class="g1u"/>
<path d="M62.7,90.1c0,2.4,-1.9,4.4,-4.3,4.4c-.5,0,-1.1,-.1,-1.6,-.3h.3V89.1h5.2v-.7c.3,.5,.4,1.1,.4,1.7Z" class="g1v"/>
<path d="M62.5,90.1c0,2.3,-1.8,4.2,-4.1,4.2c-.5,0,-1,-.1,-1.5,-.3h.2V89.1h5.1v-.6c.2,.5,.3,1.1,.3,1.6Z" class="g1w"/>
<path d="M62.3,90.1c0,2.2,-1.7,4,-3.9,4c-.5,0,-1,-.1,-1.4,-.3h.1V89.1H62v-.5c.2,.5,.3,1,.3,1.5Z" class="g1x"/>
<path d="M62.1,90.1c0,2.1,-1.6,3.8,-3.7,3.8c-1,0,-1.9,-.4,-2.5,-1.1h1.2V89.1h4.7v-.4c.2,.4,.3,.9,.3,1.4Z" class="g1y"/>
<path d="M61.9,90.1c0,2,-1.6,3.6,-3.5,3.6c-.9,0,-1.8,-.4,-2.4,-1.1h1.1V89.1h4.5v-.4c.2,.5,.3,.9,.3,1.4Z" class="g1z"/>
<path d="M61.7,90.1c0,1.9,-1.5,3.4,-3.3,3.4c-.8,0,-1.6,-.4,-2.2,-1h.9V89.1h4.3v-.3c.2,.4,.3,.9,.3,1.3Z" class="g20"/>
<path d="M61.5,90.1c0,1.8,-1.4,3.2,-3.1,3.2c-.8,0,-1.5,-.4,-2.1,-1h.8V89.1h3.5V87.9c.5,.6,.9,1.4,.9,2.2Z" class="g21"/>
<path d="M61.3,90.1C61.3,91.7,60,93,58.4,93c-.7,0,-1.4,-.3,-1.9,-.8h.6V89.1h3.3v-1c.6,.5,.9,1.2,.9,2Z" class="g22"/>
<path d="M61.1,90.1c0,1.5,-1.2,2.7,-2.7,2.7c-1.4,0,-2.6,-1.2,-2.6,-2.7h1.3v-1h3.2v-.9c.5,.5,.8,1.2,.8,1.9Z" class="g23"/>
<path d="M60.9,90.1c0,1.4,-1.1,2.5,-2.5,2.5C57.1,92.6,56,91.5,56,90.1h1.1v-1h3.1v-.7c.4,.4,.7,1,.7,1.7Z" class="g24"/>
<path d="M60.7,90.1c0,1.3,-1,2.3,-2.3,2.3c-1.2,0,-2.2,-1,-2.2,-2.3c0,-1.2,1,-2.3,2.2,-2.3c1.3,0,2.3,1.1,2.3,2.3Z" class="g25"/>
<path d="M60.5,90.1c0,1.2,-.9,2.1,-2.1,2.1c-1.1,0,-2,-.9,-2,-2.1c0,-1.1,.9,-2.1,2,-2.1c1.2,0,2.1,1,2.1,2.1Z" class="g26"/>
<path d="M60.3,90.1c0,1.1,-.8,1.9,-1.9,1.9c-1,0,-1.8,-.8,-1.8,-1.9c0,-1,.8,-1.8,1.8,-1.8c1.1,0,1.9,.8,1.9,1.8Z" class="g27"/>
<path d="M60.1,90.1c0,1,-.8,1.7,-1.7,1.7c-.8,0,-1.6,-.7,-1.6,-1.7c0,-.9,.8,-1.6,1.6,-1.6c.9,0,1.7,.7,1.7,1.6Z" class="g28"/>
<path d="M59.9,90.1c0,.8,-.7,1.5,-1.5,1.5c-.7,0,-1.4,-.7,-1.4,-1.5c0,-.8,.7,-1.4,1.4,-1.4c.8,0,1.5,.6,1.5,1.4Z" class="g29"/>
<path d="M59.7,90.1c0,.7,-.6,1.3,-1.3,1.3c-.6,0,-1.2,-.6,-1.2,-1.3c0,-.7,.6,-1.2,1.2,-1.2c.7,0,1.3,.5,1.3,1.2Z" class="g2a"/>
<path d="M59.5,90.1c0,.6,-.5,1.1,-1.1,1.1c-.5,0,-1,-.5,-1,-1.1c0,-.5,.5,-1,1,-1c.6,0,1.1,.5,1.1,1Z" class="g2b"/>
<path d="M59.3,90.1c0,.5,-.4,.9,-.9,.9c-.4,0,-.8,-.4,-.8,-.9c0,-.4,.4,-.8,.8,-.8c.5,0,.9,.4,.9,.8Z" class="g2c"/>
</g>
<path d="M59.1,90.1c0,.4,-.3,.7,-.7,.7c-.3,0,-.6,-.3,-.6,-.7c0,-.3,.3,-.6,.6,-.6c.4,0,.7,.3,.7,.6Z" class="g2d"/>
<path d="M58.9,90.1c0,.3,-.2,.4,-.5,.4c-.2,0,-.4,-.1,-.4,-.4c0,-.2,.2,-.4,.4,-.4c.3,0,.5,.2,.5,.4Z" class="g2e"/>
<path d="M58.7,90.1c0,.1,-.1,.2,-.3,.2c-.1,0,-.2,-.1,-.2,-.2c0,-.1,.1,-.2,.2,-.2c.2,0,.3,.1,.3,.2Z" class="g2f"/>
<g clip-path="url(#c2)">
<path d="M66.5,73.7h9.1v40.9H66.5V73.7Z" class="g0"/>
<path d="M75.8,74.2v34h.3c-.5,.1,-1.1,.3,-1.6,.4c-2.3,.4,-4.5,.7,-6.9,.7c-.6,0,-1.2,0,-1.7,-.1h.4V73.5h9.5Z" class="g0"/>
<path d="M75.8,74.2V108h.3c-.6,.2,-1.1,.3,-1.7,.4c-2.2,.5,-4.5,.7,-6.8,.7c-.6,0,-1.2,0,-1.7,0h.4V73.5h9.5Z" class="g2g"/>
<path d="M75.8,74.2v33.7H76c-.5,.1,-1.1,.3,-1.6,.4c-2.2,.4,-4.5,.7,-6.8,.7c-.6,0,-1.2,0,-1.7,-.1h.4V73.5h9.5Z" class="g2h"/>
<path d="M75.8,74.2v33.5H76c-.6,.2,-1.1,.3,-1.6,.4c-2.2,.5,-4.5,.7,-6.8,.7c-.6,0,-1.1,0,-1.7,0h.4V73.5h9.5Z" class="g2i"/>
<path d="M75.8,74.2v33.4h.1c-.5,.1,-1,.3,-1.6,.4c-2.1,.4,-4.4,.7,-6.7,.7c-.6,0,-1.1,0,-1.7,-.1h.4V73.5h9.5Z" class="g2j"/>
<path d="M75.8,74.2v33.2h.1c-.5,.2,-1.1,.3,-1.6,.4c-2.2,.5,-4.4,.7,-6.7,.7c-.6,0,-1.1,0,-1.7,0h.4v-35h9.5Z" class="g2k"/>
<path d="M75.8,74.2v33.1h.1c-.6,.1,-1.1,.3,-1.6,.4c-2.2,.4,-4.4,.7,-6.7,.7c-.6,0,-1.1,-.1,-1.7,-.1h.4V73.5h9.5Z" class="g2l"/>
<path d="M75.8,74.2v32.9c-.5,.2,-1,.3,-1.6,.4c-2.1,.5,-4.3,.7,-6.6,.7c-.6,0,-1.1,0,-1.7,0h.4V73.5h9.5Z" class="g2m"/>
<path d="M75.8,74.2V107c-.5,.1,-1.1,.3,-1.6,.4c-2.1,.4,-4.3,.7,-6.6,.7c-.6,0,-1.1,-.1,-1.7,-.1h.4V73.5h9.5Z" class="g2n"/>
<path d="M75.8,74.2v32.4h.7c-.2,.1,-.5,.2,-.7,.2c-.6,.2,-1.1,.3,-1.6,.4c-2.1,.5,-4.3,.7,-6.6,.7c-.6,0,-1.1,0,-1.7,0h.4V73.5h9.5Z" class="g2o"/>
<path d="M75.8,74.2v32.3h.7c-.3,0,-.5,.1,-.8,.2c-.5,.1,-1,.2,-1.6,.4c-2.1,.4,-4.3,.6,-6.5,.6c-.6,0,-1.1,0,-1.7,0h.4V73.5h9.5Z" class="g2p"/>
<path d="M75.8,74.2v32.1h.7c-.3,.1,-.6,.2,-.8,.2c-.5,.2,-1.1,.3,-1.6,.4c-2.1,.5,-4.3,.7,-6.5,.7c-.6,0,-1.1,0,-1.7,-.1h.4v-34h9.5Z" class="g2q"/>
<path d="M75.8,74.2v32h.6c-.2,0,-.5,.1,-.8,.2c-.5,.1,-1,.2,-1.5,.4c-2.1,.4,-4.3,.6,-6.5,.6c-.6,0,-1.1,0,-1.7,0h.4V73.5h9.5Z" class="g2r"/>
<path d="M75.8,74.2V106h.6c-.3,.1,-.5,.2,-.8,.2c-.5,.2,-1,.3,-1.5,.4c-2.1,.4,-4.3,.7,-6.5,.7c-.5,0,-1.1,0,-1.6,-.1h.3V73.5h9.5Z" class="g2s"/>
<path d="M75.8,74.2v31.4h1.3c-1,.4,-2,.6,-3.1,.9c-2,.4,-4.2,.6,-6.4,.6c-.5,0,-1.1,0,-1.6,0h.3V73.5h9.5Z" class="g2t"/>
<path d="M75.8,74.2v31.3H77c-1,.3,-2,.6,-3,.8c-2.1,.4,-4.2,.7,-6.4,.7c-.5,0,-1.1,0,-1.6,-.1h.3V73.5h9.5Z" class="g2u"/>
<path d="M75.8,74.2v31.1H77c-1,.4,-2,.6,-3,.9c-2.1,.4,-4.2,.6,-6.4,.6c-.5,0,-1.1,0,-1.6,0h.3V73.5h9.5Z" class="g2v"/>
<path d="M75.8,74.2v31h1.1c-.9,.3,-1.9,.6,-3,.8c-2,.4,-4.1,.7,-6.3,.7c-.5,0,-1.1,-.1,-1.6,-.1h.3V73.5h9.5Z" class="g2w"/>
<path d="M75.8,74.2v30.9h1.1c-1,.3,-2,.5,-3,.7c-2,.5,-4.1,.7,-6.3,.7c-.5,0,-1.1,0,-1.6,0h.3v-33h9.5Z" class="g2x"/>
<path d="M75.8,74.2v30.7h1.1c-1,.3,-2,.6,-3,.8c-2,.4,-4.1,.7,-6.3,.7c-.5,0,-1.1,-.1,-1.6,-.1h.3V73.5h9.5Z" class="g2y"/>
<path d="M75.8,74.2v30.6h1c-1,.3,-1.9,.5,-3,.7c-2,.5,-4.1,.7,-6.2,.7c-.5,0,-1.1,0,-1.6,0h.3V73.5h9.5Z" class="g2z"/>
<path d="M75.8,74.2v30.4h1c-1,.3,-2,.6,-3,.8c-2,.4,-4.1,.6,-6.2,.6c-.5,0,-1.1,0,-1.6,0h.3V73.5h9.5Z" class="g30"/>
<path d="M75.8,74.2v30.3h.9c-.9,.3,-1.9,.5,-2.9,.7c-2,.5,-4.1,.7,-6.2,.7c-.5,0,-1.1,0,-1.6,-.1h.3V73.5h9.5Z" class="g31"/>
<path d="M75.8,74.2v30.1h.9c-1,.3,-2,.6,-2.9,.8c-2,.4,-4.1,.6,-6.2,.6c-.5,0,-1,0,-1.6,0h.3V73.5h9.5Z" class="g32"/>
<path d="M75.8,74.2v30h.8c-.9,.3,-1.9,.5,-2.9,.7c-2,.5,-4,.7,-6.1,.7c-.5,0,-1,0,-1.6,-.1h.3v-32h9.5Z" class="g33"/>
<path d="M75.8,74.2V104h.8c-1,.3,-1.9,.6,-2.9,.8c-2,.4,-4,.6,-6.1,.6c-.5,0,-1,0,-1.5,0h.2V73.5h9.5Z" class="g34"/>
<path d="M75.8,74.2v29.7h.7c-.9,.3,-1.9,.5,-2.8,.7c-2,.4,-4,.7,-6.1,.7c-.5,0,-1,0,-1.5,-.1h.2V73.5h9.5Z" class="g35"/>
<path d="M75.8,74.2v29.5h.7c-.9,.3,-1.9,.6,-2.9,.8c-1.9,.4,-3.9,.6,-6,.6c-.5,0,-1,0,-1.5,0h.2V73.5h9.5Z" class="g36"/>
<path d="M75.8,74.2v29.4h.7c-1,.3,-1.9,.5,-2.9,.7c-1.9,.4,-3.9,.7,-6,.7c-.5,0,-1,-.1,-1.5,-.1h.2V73.5h9.5Z" class="g37"/>
<path d="M75.8,74.2v29.2h.6c-.9,.3,-1.9,.6,-2.8,.8c-2,.4,-3.9,.6,-6,.6c-.5,0,-1,0,-1.5,0h.2V73.5h9.5Z" class="g38"/>
<path d="M75.8,74.2v29.1h.6c-1,.3,-1.9,.5,-2.9,.7c-1.9,.4,-3.9,.6,-5.9,.6c-.5,0,-1,0,-1.5,0h.2V73.5h9.5Z" class="g39"/>
<path d="M75.8,74.2v28.9h.5c-.9,.3,-1.8,.6,-2.8,.8c-1.9,.4,-3.9,.6,-5.9,.6c-.5,0,-1,0,-1.5,0h.2v-31h9.5Z" class="g3a"/>
<path d="M75.8,74.2V103h.5c-.9,.3,-1.9,.5,-2.8,.7c-1.9,.4,-3.9,.6,-5.9,.6c-.5,0,-1,0,-1.5,0h.2V73.5h9.5Z" class="g3b"/>
<path d="M75.8,74.2v28.6h.4c-.9,.3,-1.8,.6,-2.7,.8c-1.9,.4,-3.9,.6,-5.9,.6c-.5,0,-1,0,-1.5,-.1h.2V73.5h9.5Z" class="g3c"/>
<path d="M75.8,74.2v28.5h.4c-.9,.3,-1.8,.5,-2.8,.7c-1.9,.4,-3.8,.6,-5.8,.6c-.5,0,-1,0,-1.5,0h.2V73.5h9.5Z" class="g3d"/>
<path d="M75.8,74.2v28.3h.3c-.9,.3,-1.8,.6,-2.7,.8c-1.9,.4,-3.8,.6,-5.8,.6c-.5,0,-1,0,-1.5,-.1h.2V73.5h9.5Z" class="g3e"/>
<path d="M75.8,74.2v28.2h.3c-.9,.3,-1.8,.5,-2.7,.7c-1.9,.4,-3.8,.6,-5.8,.6c-.5,0,-1,0,-1.5,0h.2V73.5h9.5Z" class="g3f"/>
<path d="M75.8,74.2v28h.3c-.9,.3,-1.8,.6,-2.8,.8c-1.8,.4,-3.7,.6,-5.7,.6c-.5,0,-1,0,-1.5,-.1h.2v-30h9.5Z" class="g3g"/>
<path d="M75.8,74.2v27.9H76c-.9,.3,-1.8,.5,-2.7,.7c-1.8,.4,-3.7,.6,-5.7,.6c-.5,0,-1,0,-1.5,0h.2V73.5h9.5Z" class="g3h"/>
<path d="M75.8,74.2v27.7H76c-.9,.3,-1.8,.6,-2.7,.8c-1.9,.4,-3.8,.6,-5.7,.6c-.5,0,-1,-.1,-1.4,-.1h.1V73.5h9.5Z" class="g3i"/>
<path d="M75.8,74.2v27.6h.1c-.8,.3,-1.7,.5,-2.7,.7c-1.8,.4,-3.7,.6,-5.6,.6c-.5,0,-1,0,-1.4,0h.1V73.5h9.5Z" class="g3j"/>
<path d="M75.8,74.2v27.5h.1c-.9,.2,-1.8,.5,-2.7,.7c-1.8,.3,-3.7,.5,-5.6,.5c-.5,0,-1,0,-1.4,0h.1V73.5h9.5Z" class="g3k"/>
<path d="M75.8,74.2v27.3c-.8,.3,-1.7,.5,-2.6,.7c-1.8,.4,-3.7,.6,-5.6,.6c-.5,0,-.9,0,-1.4,0h.1V73.5h9.5Z" class="g3l"/>
<path d="M75.8,74.2v27.2c-.9,.2,-1.8,.5,-2.6,.7c-1.8,.3,-3.7,.5,-5.6,.5c-.5,0,-.9,0,-1.4,0h.1V73.5h9.5Z" class="g3m"/>
<path d="M75.8,74.2v26.6H77c-.4,.1,-.8,.3,-1.3,.4c-.8,.3,-1.7,.5,-2.6,.7c-1.8,.4,-3.6,.6,-5.5,.6c-.5,0,-.9,0,-1.4,-.1h.1V73.5h9.5Z" class="g3n"/>
<path d="M75.8,74.2v26.4H77c-.4,.2,-.9,.3,-1.3,.5c-.8,.2,-1.7,.5,-2.6,.7c-1.8,.3,-3.6,.5,-5.5,.5c-.5,0,-.9,0,-1.4,0h.1V73.5h9.5Z" class="g3o"/>
<path d="M75.8,74.2v26.3h1.1c-.4,.1,-.8,.3,-1.2,.4c-.9,.3,-1.8,.5,-2.6,.7c-1.8,.4,-3.6,.6,-5.5,.6c-.5,0,-.9,0,-1.4,-.1h.1V73.5h9.5Z" class="g3p"/>
<path d="M75.8,74.2v26.1h1.1c-.4,.2,-.9,.3,-1.3,.5c-.8,.2,-1.7,.5,-2.6,.7c-1.7,.3,-3.5,.5,-5.4,.5c-.5,0,-.9,0,-1.4,0h.1V73.5h9.5Z" class="g3q"/>
<path d="M75.8,74.2v26h1c-.4,.1,-.8,.3,-1.2,.4c-.9,.3,-1.7,.5,-2.6,.7c-1.7,.4,-3.5,.6,-5.4,.6c-.5,0,-.9,0,-1.4,-.1h.1V73.5h9.5Z" class="g3r"/>
<path d="M75.8,74.2V100h1c-.4,.2,-.9,.3,-1.3,.5c-.8,.2,-1.7,.5,-2.5,.6c-1.8,.4,-3.6,.6,-5.4,.6c-.5,0,-.9,0,-1.4,0h.1V73.5h9.5Z" class="g3s"/>
<path d="M75.8,74.2V99.9h.9c-.4,.1,-.8,.3,-1.2,.4c-.8,.3,-1.7,.5,-2.6,.7c-1.7,.4,-3.5,.6,-5.3,.6c-.5,0,-.9,-.1,-1.4,-.1h.1v-28h9.5Z" class="g3t"/>
<path d="M75.8,74.2V99.7h.9c-.4,.2,-.9,.3,-1.3,.5c-.8,.2,-1.6,.5,-2.5,.6c-1.7,.4,-3.5,.6,-5.3,.6c-.4,0,-.9,0,-1.3,0V73.5h9.5Z" class="g3u"/>
<path d="M75.8,74.2V99.6h.8c-.4,.2,-.8,.3,-1.2,.4c-.8,.3,-1.7,.5,-2.5,.7c-1.7,.4,-3.5,.5,-5.3,.5c-.4,0,-.9,0,-1.3,0V73.5h9.5Z" class="g3v"/>
<path d="M75.8,74.2V99.5h.8c-.4,.1,-.8,.2,-1.3,.4c-.8,.2,-1.6,.5,-2.4,.6c-1.7,.4,-3.5,.6,-5.3,.6c-.4,0,-.9,0,-1.3,0V73.5h9.5Z" class="g3w"/>
<path d="M75.8,74.2V99.3h.7c-.4,.2,-.8,.3,-1.2,.4c-.8,.3,-1.6,.5,-2.5,.7c-1.7,.3,-3.4,.5,-5.2,.5c-.4,0,-.9,0,-1.3,0V73.5h9.5Z" class="g3x"/>
<path d="M75.8,74.2v25h.7c-.4,.1,-.8,.3,-1.2,.4c-.8,.2,-1.7,.5,-2.5,.6c-1.7,.4,-3.4,.6,-5.2,.6c-.9,0,-1.8,-.1,-2.6,-.2h1.3V73.5h9.5Z" class="g3y"/>
<path d="M75.8,74.2V99h.6c-.4,.2,-.8,.3,-1.2,.4c-.8,.3,-1.6,.5,-2.4,.7c-1.7,.3,-3.4,.5,-5.2,.5c-.9,0,-1.8,0,-2.6,-.1h1.3v-27h9.5Z" class="g3z"/>
<path d="M75.8,74.2V98.9h.6c-.4,.1,-.8,.3,-1.2,.4c-.8,.2,-1.6,.5,-2.5,.6c-1.6,.4,-3.3,.6,-5.1,.6c-.9,0,-1.7,-.1,-2.6,-.2h1.3V73.5h9.5Z" class="g40"/>
<path d="M75.8,74.2V98.7h.5c-.4,.2,-.8,.3,-1.2,.4c-.8,.3,-1.6,.5,-2.4,.7c-1.6,.3,-3.3,.5,-5.1,.5c-.9,0,-1.7,0,-2.6,-.1h1.3V73.5h9.5Z" class="g41"/>
<path d="M75.8,74.2V98.6h.4c-.3,.1,-.7,.3,-1.1,.4c-.8,.2,-1.6,.5,-2.4,.6c-1.7,.4,-3.4,.6,-5.1,.6c-.9,0,-1.7,-.1,-2.6,-.2h1.3V73.5h9.5Z" class="g42"/>
<path d="M75.8,74.2V98.4h.4c-.4,.2,-.8,.3,-1.2,.4c-.7,.3,-1.5,.5,-2.4,.7c-1.6,.3,-3.3,.5,-5,.5c-.9,0,-1.7,0,-2.5,-.1h1.2V73.5h9.5Z" class="g43"/>
<path d="M75.8,74.2V98.3h.3c-.3,.1,-.7,.3,-1.1,.4c-.8,.2,-1.6,.5,-2.4,.6c-1.6,.4,-3.3,.6,-5,.6c-.9,0,-1.7,-.1,-2.5,-.2h1.2V73.5h9.5Z" class="g44"/>
<path d="M75.8,74.2V98.1h.3c-.4,.2,-.8,.3,-1.2,.4c-.7,.3,-1.5,.5,-2.3,.7c-1.6,.3,-3.3,.5,-5,.5c-.8,0,-1.7,0,-2.5,-.1h1.2V73.5h9.5Z" class="g45"/>
<path d="M75.8,74.2V98H76c-.3,.1,-.7,.3,-1.1,.4c-.8,.2,-1.6,.5,-2.3,.6c-1.6,.4,-3.3,.5,-5,.5c-.8,0,-1.7,0,-2.5,-.1h1.2V73.5h9.5Z" class="g46"/>
<path d="M75.8,74.2V97.9H76c-.4,.1,-.8,.2,-1.1,.4c-.8,.2,-1.6,.4,-2.4,.6c-1.6,.3,-3.2,.5,-4.9,.5c-.8,0,-1.7,-.1,-2.5,-.1h1.2V73.5h9.5Z" class="g47"/>
<path d="M75.8,74.2V97.3H77c-2.9,1.2,-6,1.9,-9.4,1.9c-.8,0,-1.7,0,-2.5,-.1h1.2V73.5h9.5Z" class="g48"/>
<path d="M75.8,74.2V97.1H77c-2.9,1.3,-6.1,2,-9.4,2c-.8,0,-1.6,-.1,-2.5,-.2h1.2V73.5h9.5Z" class="g49"/>
<path d="M75.8,74.2V97h1.1c-2.8,1.2,-6,1.9,-9.3,1.9c-.8,0,-1.6,0,-2.4,-.1h1.1V73.5h9.5Z" class="g4a"/>
<path d="M75.8,74.2V96.8h1.1c-2.9,1.3,-6,2,-9.3,2c-.8,0,-1.6,-.1,-2.4,-.2h1.1V73.5h9.5Z" class="g4b"/>
<path d="M75.8,74.2V96.7h1c-2.8,1.2,-5.9,1.9,-9.2,1.9c-.8,0,-1.6,0,-2.4,-.1h1.1v-25h9.5Z" class="g4c"/>
<path d="M75.8,74.2V96.5h.9c-2.8,1.3,-5.9,2,-9.1,2c-.8,0,-1.6,-.1,-2.4,-.2h1.1V73.5h9.5Z" class="g4d"/>
<path d="M75.8,74.2V96.4h.9c-2.8,1.2,-5.9,1.9,-9.1,1.9c-.8,0,-1.6,0,-2.4,-.1h1.1V73.5h9.5Z" class="g4e"/>
<path d="M75.8,74.2V96.3h.8c-2.7,1.2,-5.8,1.8,-9,1.8c-.8,0,-1.6,0,-2.4,-.1h1.1V73.5h9.5Z" class="g4f"/>
<path d="M75.8,74.2V96.1h.8c-2.8,1.2,-5.8,1.9,-9,1.9c-.8,0,-1.6,0,-2.4,-.1h1.1V73.5h9.5Z" class="g4g"/>
<path d="M75.8,74.2V96h.7c-2.7,1.2,-5.7,1.8,-8.9,1.8c-.8,0,-1.6,0,-2.3,-.1h1V73.5h9.5Z" class="g4h"/>
<path d="M75.8,74.2V95.8h.7c-2.8,1.2,-5.8,1.9,-8.9,1.9c-.8,0,-1.6,-.1,-2.3,-.1h1V73.5h9.5Z" class="g4i"/>
<path d="M75.8,74.2V95.7h.6c-2.7,1.2,-5.7,1.8,-8.8,1.8c-.8,0,-1.5,0,-2.3,-.1h1V73.5h9.5Z" class="g4j"/>
<path d="M75.8,74.2V95.6h.5c-2.6,1.1,-5.6,1.8,-8.7,1.8c-.8,0,-1.5,-.1,-2.3,-.1h1V73.5h9.5Z" class="g4k"/>
<path d="M75.8,74.2V95.4h.5c-2.7,1.2,-5.6,1.8,-8.7,1.8c-.8,0,-1.5,0,-2.3,-.1h1V73.5h9.5Z" class="g4l"/>
<path d="M75.8,74.2V95.3h.4c-2.6,1.1,-5.5,1.8,-8.6,1.8c-.8,0,-1.5,-.1,-2.3,-.2h1V73.5h9.5Z" class="g4m"/>
<path d="M75.8,74.2V95.1h.4c-2.7,1.2,-5.6,1.8,-8.6,1.8c-.8,0,-1.5,0,-2.2,-.1h.9V73.5h9.5Z" class="g4n"/>
<path d="M75.8,74.2V95h.3c-2.6,1.1,-5.5,1.8,-8.5,1.8c-.7,0,-1.5,-.1,-2.2,-.2h.9V73.5h9.5Z" class="g4o"/>
<path d="M75.8,74.2V94.8H76c-2.5,1.2,-5.4,1.8,-8.4,1.8c-.7,0,-1.5,0,-2.2,-.1h.9v-23h9.5Z" class="g4p"/>
<path d="M75.8,74.2V94.7H76c-2.6,1.1,-5.4,1.7,-8.4,1.7c-.7,0,-1.5,0,-2.2,-.1h.9V73.5h9.5Z" class="g4q"/>
<path d="M75.8,74.2V94.6h.1c-2.5,1.1,-5.3,1.7,-8.3,1.7c-.7,0,-1.5,0,-2.2,-.1h.9V73.5h9.5Z" class="g4r"/>
<path d="M75.8,74.2V94.4h.1c-2.6,1.1,-5.4,1.7,-8.3,1.7c-.7,0,-1.5,0,-2.2,-.1h.9V73.5h9.5Z" class="g4s"/>
<path d="M75.8,74.2V94.3C73.3,95.4,70.5,96,67.6,96c-.7,0,-1.4,-.1,-2.2,-.1h.9V73.5h9.5Z" class="g4t"/>
<path d="M75.8,74.2V93.7h.9c-.3,.1,-.6,.3,-.9,.4c-2.5,1.1,-5.3,1.7,-8.2,1.7c-.7,0,-1.4,0,-2.1,-.1h.8V73.5h9.5Z" class="g4u"/>
<path d="M75.8,74.2V93.6h.8c-.3,.1,-.6,.2,-.9,.4c-2.5,1.1,-5.2,1.7,-8.1,1.7c-.7,0,-1.4,-.1,-2.1,-.1h.8V73.5h9.5Z" class="g4v"/>
<path d="M75.8,74.2V93.4h.8c-.3,.2,-.6,.3,-1,.4c-2.4,1.1,-5.1,1.7,-8,1.7c-.7,0,-1.4,0,-2.1,-.1h.8V73.5h9.5Z" class="g4w"/>
<path d="M75.8,74.2V93.3h.7c-.3,.1,-.6,.3,-.9,.4c-2.5,1.1,-5.2,1.7,-8,1.7c-.7,0,-1.4,-.1,-2.1,-.1h.8V73.5h9.5Z" class="g4x"/>
<path d="M75.8,74.2V93.1h.6c-.3,.2,-.6,.3,-.9,.5c-2.4,1,-5.1,1.6,-7.9,1.6c-.7,0,-1.4,0,-2.1,-.1h.8V73.5h9.5Z" class="g4y"/>
<path d="M75.8,74.2V93h.6c-.3,.1,-.6,.3,-.9,.4c-2.4,1.1,-5.1,1.7,-7.9,1.7c-.7,0,-1.4,-.1,-2.1,-.2h.8V73.5h9.5Z" class="g4z"/>
<path d="M75.8,74.2V92.9h.5c-.3,.1,-.6,.2,-.9,.4c-2.4,1,-5,1.6,-7.8,1.6c-.7,0,-1.4,0,-2,-.1h.7V73.5h9.5Z" class="g50"/>
<path d="M75.8,74.2V92.3h1.3c-.6,.3,-1.2,.6,-1.7,.8c-2.4,1.1,-5,1.6,-7.8,1.6c-.7,0,-1.4,0,-2,-.1h.7V73.5h9.5Z" class="g51"/>
<path d="M75.8,74.2V92.1H77c-.5,.3,-1.1,.6,-1.7,.9c-2.4,1,-5,1.6,-7.7,1.6c-.7,0,-1.3,0,-2,-.1h.7v-21h9.5Z" class="g52"/>
<path d="M75.8,74.2V92h1.1c-.5,.3,-1.1,.6,-1.7,.8c-2.3,1.1,-4.9,1.6,-7.6,1.6c-.7,0,-1.3,0,-2,-.1h.7V73.5h9.5Z" class="g53"/>
<path d="M75.8,74.2V91.9h1.1c-.6,.3,-1.1,.5,-1.7,.8c-2.4,1,-4.9,1.6,-7.6,1.6c-.7,0,-1.3,-.1,-2,-.1h.7V73.5h9.5Z" class="g54"/>
<path d="M75.8,74.2V91.7h1c-.5,.3,-1.1,.6,-1.7,.9c-2.3,1,-4.8,1.5,-7.5,1.5c-.7,0,-1.3,0,-2,-.1h.7V73.5h9.5Z" class="g55"/>
<path d="M75.8,74.2V91.6h.9c-.5,.3,-1.1,.6,-1.6,.8c-2.3,1,-4.9,1.6,-7.5,1.6c-.7,0,-1.3,-.1,-2,-.1h.7V73.5h9.5Z" class="g56"/>
<path d="M75.8,74.2V91.4h.9c-.6,.3,-1.1,.6,-1.7,.9c-2.3,1,-4.8,1.5,-7.4,1.5c-.7,0,-1.3,0,-1.9,-.1h.6V73.5h9.5Z" class="g57"/>
<path d="M75.8,74.2V91.3h.8c-.5,.3,-1.1,.6,-1.7,.8c-2.2,1,-4.7,1.6,-7.3,1.6c-.6,0,-1.3,-.1,-1.9,-.1h.6V73.5h9.5Z" class="g58"/>
<path d="M75.8,74.2v17h.7c-.5,.3,-1.1,.5,-1.6,.8c-2.3,1,-4.7,1.5,-7.3,1.5c-.6,0,-1.3,0,-1.9,-.1h.6V73.5h9.5Z" class="g59"/>
<path d="M75.8,74.2V91h.7c-.6,.3,-1.1,.6,-1.7,.8c-2.2,1,-4.6,1.6,-7.2,1.6c-.6,0,-1.3,-.1,-1.9,-.1h.6V73.5h9.5Z" class="g5a"/>
<path d="M75.8,74.2V90.9h.6c-.5,.3,-1.1,.6,-1.6,.8c-2.2,1,-4.7,1.5,-7.2,1.5c-.6,0,-1.3,0,-1.9,-.1h.6V73.5h9.5Z" class="g5b"/>
<path d="M75.8,74.2V90.8h.5c-.5,.3,-1,.5,-1.6,.8C72.5,92.5,70.1,93,67.6,93c-.6,0,-1.2,0,-1.9,-.1h.6V73.5h9.5Z" class="g5c"/>
<path d="M75.8,74.2V90.6h.4c-.5,.3,-1,.6,-1.5,.8c-2.2,1,-4.6,1.5,-7.1,1.5c-.6,0,-1.2,0,-1.8,-.1h.5V73.5h9.5Z" class="g5d"/>
<path d="M75.8,74.2V90.5h.4c-.5,.3,-1.1,.5,-1.6,.8c-2.2,.9,-4.5,1.4,-7,1.4c-.6,0,-1.2,0,-1.8,-.1h.5V73.5h9.5Z" class="g5e"/>
<path d="M75.8,74.2V90.4h.3c-.5,.2,-1,.5,-1.6,.7c-2.1,1,-4.4,1.5,-6.9,1.5c-.6,0,-1.2,-.1,-1.8,-.1h.5v-19h9.5Z" class="g5f"/>
<path d="M75.8,74.2v16H76c-.5,.3,-1,.6,-1.5,.8c-2.1,.9,-4.5,1.4,-6.9,1.4c-.6,0,-1.2,0,-1.8,-.1h.5V73.5h9.5Z" class="g5g"/>
<path d="M75.8,74.2V90.1h.1c-.4,.3,-1,.5,-1.5,.7c-2.1,1,-4.4,1.5,-6.8,1.5c-.6,0,-1.2,-.1,-1.8,-.1h.5V73.5h9.5Z" class="g5h"/>
<path d="M75.8,74.2V89.9h.1c-.5,.3,-1,.6,-1.5,.8c-2.1,.9,-4.4,1.4,-6.8,1.4c-.6,0,-1.2,0,-1.8,-.1h.5V73.5h9.5Z" class="g5i"/>
<path d="M75.8,74.2V89.8c-.5,.3,-1,.5,-1.5,.8C72.2,91.5,70,92,67.6,92c-.6,0,-1.2,-.1,-1.8,-.1h.5V73.5h9.5Z" class="g5j"/>
<path d="M75.8,74.2V89.3h.7c-.3,.1,-.5,.2,-.8,.4c-.4,.2,-.9,.5,-1.5,.7c-2,.9,-4.2,1.4,-6.6,1.4c-.6,0,-1.2,0,-1.7,-.1h.4V73.5h9.5Z" class="g5k"/>
<path d="M75.8,74.2V88.7h1.3c-.9,.6,-1.9,1.1,-2.9,1.6c-2,.9,-4.3,1.4,-6.6,1.4c-.6,0,-1.2,-.1,-1.7,-.1h.4V73.5h9.5Z" class="g5l"/>
<path d="M75.8,74.2V88.5H77c-.9,.7,-1.9,1.2,-2.9,1.6c-2,.9,-4.2,1.4,-6.5,1.4c-.6,0,-1.1,0,-1.7,-.1h.4V73.5h9.5Z" class="g5m"/>
<path d="M75.8,74.2V88.4h1.1C76,89,75.1,89.6,74.1,90c-2,.9,-4.2,1.3,-6.5,1.3c-.6,0,-1.1,0,-1.7,0h.4V73.5h9.5Z" class="g5n"/>
<path d="M75.8,74.2V88.3h1c-.9,.6,-1.8,1.1,-2.8,1.6c-2,.8,-4.1,1.3,-6.4,1.3c-.6,0,-1.1,0,-1.7,-.1h.4V73.5h9.5Z" class="g5o"/>
<path d="M75.8,74.2v14h.9c-.8,.6,-1.8,1.1,-2.7,1.5C72,90.6,69.9,91,67.6,91c-.6,0,-1.1,0,-1.7,-.1h.4V73.5h9.5Z" class="g5p"/>
<path d="M75.8,74.2V88h.8c-.8,.6,-1.7,1.1,-2.7,1.6c-1.9,.8,-4.1,1.3,-6.3,1.3c-.6,0,-1.1,-.1,-1.6,-.1h.3V73.5h9.5Z" class="g5q"/>
<path d="M75.8,74.2V87.9h.8c-.9,.6,-1.8,1.1,-2.8,1.5c-1.9,.9,-4,1.3,-6.2,1.3c-.5,0,-1.1,0,-1.6,-.1h.3V73.5h9.5Z" class="g5r"/>
<path d="M75.8,74.2V87.8h.7c-.9,.6,-1.8,1.1,-2.7,1.5c-1.9,.8,-4,1.3,-6.2,1.3c-.5,0,-1.1,-.1,-1.6,-.1h.3v-17h9.5Z" class="g5s"/>
<path d="M75.8,74.2V87.6h.6c-.8,.6,-1.7,1.1,-2.7,1.5c-1.9,.9,-3.9,1.3,-6.1,1.3c-.5,0,-1.1,0,-1.6,-.1h.3V73.5h9.5Z" class="g5t"/>
<path d="M75.8,74.2V87.5h.5c-.8,.6,-1.7,1.1,-2.6,1.5c-1.9,.8,-3.9,1.3,-6.1,1.3c-.5,0,-1.1,-.1,-1.6,-.1h.3V73.5h9.5Z" class="g5u"/>
<path d="M75.8,74.2V87.4h.4c-.8,.6,-1.7,1,-2.6,1.5c-1.8,.8,-3.9,1.2,-6,1.2c-.5,0,-1.1,0,-1.6,-.1h.3V73.5h9.5Z" class="g5v"/>
<path d="M75.8,74.2V87.3h.3c-.8,.5,-1.6,1,-2.6,1.4c-1.8,.8,-3.8,1.2,-5.9,1.2c-.5,0,-1,0,-1.6,0h.3V73.5h9.5Z" class="g5w"/>
<path d="M75.8,74.2V87.1h.3c-.9,.6,-1.7,1.1,-2.6,1.5c-1.8,.8,-3.8,1.2,-5.9,1.2c-.5,0,-1,0,-1.5,-.1h.2V73.5h9.5Z" class="g5x"/>
<path d="M75.8,74.2V87H76c-.8,.6,-1.7,1,-2.6,1.4c-1.8,.8,-3.7,1.2,-5.8,1.2c-.5,0,-1,0,-1.5,0h.2V73.5h9.5Z" class="g5y"/>
<path d="M75.8,74.2V86.9h.1c-.8,.5,-1.6,1,-2.5,1.4c-1.8,.8,-3.7,1.2,-5.8,1.2c-.5,0,-1,0,-1.5,-.1h.2V73.5h9.5Z" class="g5z"/>
<path d="M75.8,74.2V86.7c-.8,.6,-1.6,1.1,-2.5,1.4c-1.7,.8,-3.7,1.2,-5.7,1.2c-.5,0,-1,0,-1.5,0h.2V73.5h9.5Z" class="g60"/>
<path d="M75.8,74.2V85.7h1c-.3,.4,-.7,.6,-1.1,.9c-.8,.6,-1.6,1,-2.4,1.4c-1.8,.8,-3.7,1.2,-5.7,1.2c-.5,0,-1,-.1,-1.5,-.1h.2V73.5h9.5Z" class="g61"/>
<path d="M75.8,74.2V85.6h.9c-.3,.3,-.7,.6,-1.1,.9c-.7,.5,-1.5,1,-2.4,1.4C71.5,88.6,69.6,89,67.6,89c-.5,0,-1,0,-1.5,-.1h.2V73.5h9.5Z" class="g62"/>
<path d="M75.8,74.2V85.5h.8c-.3,.3,-.7,.6,-1,.9c-.8,.5,-1.6,.9,-2.5,1.3c-1.7,.8,-3.5,1.2,-5.5,1.2c-.5,0,-1,-.1,-1.4,-.1h.1V73.5h9.5Z" class="g63"/>
<path d="M75.8,74.2V85.4h.8c-.4,.3,-.8,.6,-1.1,.8c-.8,.6,-1.6,1,-2.4,1.4c-1.7,.7,-3.6,1.1,-5.5,1.1c-.5,0,-1,0,-1.4,-.1h.1V73.5h9.5Z" class="g64"/>
<path d="M75.8,74.2V85.3h.7c-.4,.3,-.7,.5,-1.1,.8c-.8,.5,-1.5,1,-2.4,1.3c-1.6,.8,-3.5,1.2,-5.4,1.2c-.5,0,-1,-.1,-1.4,-.1h.1v-15h9.5Z" class="g65"/>
<path d="M75.8,74.2v11h.6c-.4,.2,-.7,.5,-1.1,.8c-.7,.5,-1.5,.9,-2.3,1.3c-1.7,.7,-3.5,1.1,-5.4,1.1c-.5,0,-.9,0,-1.4,-.1h.1V73.5h9.5Z" class="g66"/>
<path d="M75.8,74.2V85h.5c-.4,.3,-.7,.6,-1.1,.8c-.7,.5,-1.5,1,-2.3,1.3c-1.6,.8,-3.4,1.1,-5.3,1.1c-.5,0,-.9,0,-1.4,0h.1V73.5h9.5Z" class="g67"/>
<path d="M75.8,74.2V84.9h.4c-.4,.3,-.7,.6,-1.1,.8c-.7,.5,-1.4,.9,-2.3,1.3c-1.6,.7,-3.3,1.1,-5.2,1.1c-.5,0,-.9,0,-1.4,-.1h.1V73.5h9.5Z" class="g68"/>
<path d="M75.8,74.2v9.7H77c-2.4,2.5,-5.7,4,-9.4,4c-.5,0,-.9,0,-1.4,0h.1V73.5h9.5Z" class="g69"/>
<path d="M75.8,74.2v9.6h1.1c-2.4,2.5,-5.7,4,-9.3,4c-.4,0,-.9,0,-1.3,-.1V73.5h9.5Z" class="g6a"/>
<path d="M75.8,74.2v9.5h1c-2.3,2.4,-5.6,3.9,-9.2,3.9c-.9,0,-1.8,-.1,-2.6,-.2h1.3V73.5h9.5Z" class="g6b"/>
<path d="M75.8,74.2v9.4h.9c-2.3,2.4,-5.5,3.9,-9.1,3.9c-.9,0,-1.8,-.1,-2.6,-.3h1.3V73.5h9.5Z" class="g6c"/>
<path d="M75.8,74.2v9.3h.8c-2.3,2.3,-5.5,3.8,-9,3.8c-.9,0,-1.7,-.1,-2.6,-.2h1.3V73.5h9.5Z" class="g6d"/>
<path d="M75.8,74.2v9.2h.7c-2.3,2.3,-5.4,3.8,-8.9,3.8c-.9,0,-1.7,-.1,-2.5,-.3h1.2V73.5h9.5Z" class="g6e"/>
<path d="M75.8,74.2v9h.6C74.1,85.6,71,87,67.6,87c-.9,0,-1.7,-.1,-2.5,-.3h1.2V73.5h9.5Z" class="g6f"/>
<path d="M75.8,74.2v8.9h.5c-2.2,2.3,-5.3,3.8,-8.7,3.8c-.8,0,-1.7,-.1,-2.5,-.3h1.2V73.5h9.5Z" class="g6g"/>
<path d="M75.8,74.2V83h.4C74,85.3,71,86.7,67.6,86.7c-.8,0,-1.6,-.1,-2.4,-.3h1.1V73.5h9.5Z" class="g6h"/>
<path d="M75.8,74.2v8.7h.3c-2.2,2.3,-5.2,3.6,-8.5,3.6c-.8,0,-1.6,0,-2.4,-.2h1.1V73.5h9.5Z" class="g6i"/>
<path d="M75.8,74.2v8.6H76c-2.2,2.2,-5.1,3.6,-8.4,3.6c-.8,0,-1.6,-.1,-2.4,-.3h1.1V73.5h9.5Z" class="g6j"/>
<path d="M75.8,74.2v8.5h.1c-2.2,2.2,-5.1,3.5,-8.3,3.5c-.8,0,-1.6,0,-2.3,-.2h1V73.5h9.5Z" class="g6k"/>
<path d="M75.8,74.2v7.5h.7c-.2,.3,-.5,.6,-.7,.9c-2.1,2.1,-5,3.5,-8.2,3.5c-.8,0,-1.6,-.1,-2.3,-.3h1V73.5h9.5Z" class="g6l"/>
<path d="M75.8,74.2v6.5H77c-.4,.7,-.8,1.3,-1.4,1.8c-2,2.1,-4.9,3.4,-8,3.4c-.8,0,-1.5,-.1,-2.3,-.2h1V73.5h9.5Z" class="g6m"/>
<path d="M75.8,74.2v6.5h1.1c-.4,.6,-.9,1.1,-1.4,1.7c-2,2.1,-4.8,3.4,-7.9,3.4c-.8,0,-1.5,-.1,-2.3,-.3h1v-12h9.5Z" class="g6n"/>
<path d="M75.8,74.2v6.4h1c-.4,.6,-.9,1.1,-1.4,1.7c-2,2,-4.7,3.3,-7.8,3.3c-.8,0,-1.5,-.1,-2.2,-.2h.9V73.5h9.5Z" class="g6o"/>
<path d="M75.8,74.2v6.3h.9c-.4,.6,-.9,1.1,-1.4,1.7c-1.9,2,-4.7,3.3,-7.7,3.3c-.7,0,-1.5,-.1,-2.2,-.3h.9V73.5h9.5Z" class="g6p"/>
<path d="M75.8,74.2v6.2h.7c-.3,.6,-.8,1.1,-1.3,1.6c-1.9,2.1,-4.6,3.3,-7.6,3.3c-.7,0,-1.5,-.1,-2.2,-.2h.9V73.5h9.5Z" class="g6q"/>
<path d="M75.8,74.2v6.1h.6c-.4,.6,-.8,1.1,-1.3,1.6c-1.9,2,-4.6,3.3,-7.5,3.3c-.7,0,-1.4,-.1,-2.1,-.3h.8V73.5h9.5Z" class="g6r"/>
<path d="M75.8,74.2v6h.5c-.4,.6,-.8,1.1,-1.3,1.6c-1.9,2,-4.5,3.2,-7.4,3.2c-.7,0,-1.4,-.1,-2.1,-.2h.8V73.5h9.5Z" class="g6s"/>
<path d="M75.8,74.2v5.9h.4c-.4,.6,-.8,1.1,-1.3,1.6c-1.9,1.9,-4.4,3.1,-7.3,3.1c-.7,0,-1.4,0,-2.1,-.2h.8V73.5h9.5Z" class="g6t"/>
<path d="M75.8,74.2v4.1H77c-.5,1.2,-1.3,2.4,-2.2,3.3c-1.8,1.9,-4.4,3.1,-7.2,3.1c-.7,0,-1.4,-.1,-2,-.2h.7v-11h9.5Z" class="g6u"/>
<path d="M75.8,74.2v4h1c-.5,1.2,-1.2,2.4,-2.1,3.3c-1.8,1.9,-4.3,3,-7.1,3c-.7,0,-1.4,0,-2,-.2h.7V73.5h9.5Z" class="g6v"/>
<path d="M75.8,74.2v3.9h.9c-.5,1.3,-1.2,2.4,-2.1,3.3c-1.8,1.8,-4.3,3,-7,3c-.7,0,-1.3,-.1,-2,-.2h.7V73.5h9.5Z" class="g6w"/>
<path d="M75.8,74.2v3.9h.8c-.5,1.2,-1.2,2.3,-2.1,3.2c-1.8,1.8,-4.2,2.9,-6.9,2.9c-.7,0,-1.3,0,-2,-.2h.7V73.5h9.5Z" class="g6x"/>
<path d="M75.8,74.2V78h.6c-.5,1.2,-1.2,2.3,-2,3.2c-1.8,1.8,-4.2,2.9,-6.8,2.9c-.7,0,-1.3,-.1,-1.9,-.2h.6V73.5h9.5Z" class="g6y"/>
<path d="M77,74.2c0,5.4,-4.2,9.7,-9.4,9.7c-.6,0,-1.3,-.1,-1.9,-.2h.6V73.5h9.5v.7Z" class="g6z"/>
<path d="M76.9,74.2c0,5.3,-4.2,9.6,-9.3,9.6c-.6,0,-1.3,-.1,-1.9,-.2h.6V73.5h9.5v.7Z" class="g70"/>
<path d="M76.7,74.2c0,5.2,-4.1,9.4,-9.1,9.4c-.6,0,-1.2,-.1,-1.8,-.2h.5V73.5h9.5v.7Z" class="g71"/>
<path d="M76.6,74.2c0,5.1,-4,9.3,-9,9.3c-.6,0,-1.2,-.1,-1.8,-.2h.5V73.5h9.5v.7Z" class="g72"/>
<path d="M76.4,74.2c0,5,-3.9,9.1,-8.8,9.1c-.6,0,-1.2,-.1,-1.8,-.2h.5V73.5h9.5v.7Z" class="g73"/>
<path d="M76.3,74.2c0,4.9,-3.9,8.9,-8.7,8.9c-.6,0,-1.2,0,-1.7,-.1h.4V73.5h9.5v.7Z" class="g74"/>
<path d="M76.1,74.2C76.1,79,72.3,83,67.6,83c-.6,0,-1.2,-.1,-1.7,-.2h.4V73.5h9.5v.7Z" class="g75"/>
<path d="M76,74.2c0,4.8,-3.8,8.6,-8.4,8.6c-.6,0,-1.1,0,-1.7,-.1h.4V73.5h9.5v.7Z" class="g76"/>
<path d="M75.8,74.2c0,4.7,-3.7,8.5,-8.2,8.5c-.6,0,-1.1,-.1,-1.7,-.2h.4v-9h9.4v-1c.1,.5,.1,1.1,.1,1.7Z" class="g77"/>
<path d="M75.7,74.2c0,4.6,-3.6,8.3,-8.1,8.3c-.6,0,-1.1,0,-1.6,-.1h.3V73.5h9.2v-1c.1,.5,.2,1.1,.2,1.7Z" class="g78"/>
<path d="M75.5,74.2c0,4.5,-3.5,8.2,-7.9,8.2c-.5,0,-1.1,-.1,-1.6,-.2h.3V73.5h9.1v-1c.1,.5,.1,1.1,.1,1.7Z" class="g79"/>
<path d="M75.4,74.2c0,4.4,-3.5,8,-7.8,8c-.5,0,-1.1,0,-1.6,-.2h.3V73.5h8.9v-1c.1,.6,.2,1.1,.2,1.7Z" class="g7a"/>
<path d="M75.2,74.2c0,4.3,-3.4,7.9,-7.6,7.9c-.5,0,-1,-.1,-1.5,-.2h.2V73.5h8.8v-.9c.1,.5,.1,1,.1,1.6Z" class="g7b"/>
<path d="M75.1,74.2c0,4.2,-3.4,7.7,-7.5,7.7c-.5,0,-1,-.1,-1.5,-.2h.2V73.5h8.6v-.9c.1,.5,.2,1,.2,1.6Z" class="g7c"/>
<path d="M74.9,74.2c0,4.2,-3.2,7.5,-7.3,7.5c-.5,0,-1,0,-1.5,-.1h.2V73.5h8.5v-.9c.1,.5,.1,1,.1,1.6Z" class="g7d"/>
<path d="M74.8,74.2c0,4.1,-3.2,7.4,-7.2,7.4c-.5,0,-1,-.1,-1.4,-.2h.1V73.5h8.3v-.8c.1,.5,.2,1,.2,1.5Z" class="g7e"/>
<path d="M74.6,74.2c0,4,-3.1,7.2,-7,7.2c-.5,0,-1,0,-1.4,-.1h.1V73.5h8.2v-.8c.1,.5,.1,1,.1,1.5Z" class="g7f"/>
<path d="M74.5,74.2c0,3.9,-3.1,7.1,-6.9,7.1c-.5,0,-.9,-.1,-1.4,-.2h.1V73.5h8v-.8c.1,.5,.2,1,.2,1.5Z" class="g7g"/>
<path d="M74.3,74.2c0,3.8,-3,6.9,-6.7,6.9c-.9,0,-1.8,-.2,-2.6,-.5h1.3V73.5h7.9v-.7c.1,.4,.1,.9,.1,1.4Z" class="g7h"/>
<path d="M74.2,74.2c0,3.7,-3,6.8,-6.6,6.8c-.9,0,-1.8,-.2,-2.6,-.6h1.3V73.5h7.8v-.7c0,.4,.1,.9,.1,1.4Z" class="g7i"/>
<path d="M74,74.2c0,3.6,-2.8,6.6,-6.4,6.6c-.9,0,-1.7,-.2,-2.5,-.5h1.2V73.5h7.6v-.7c.1,.5,.1,.9,.1,1.4Z" class="g7j"/>
<path d="M73.9,74.2c0,3.6,-2.8,6.5,-6.3,6.5c-.9,0,-1.7,-.2,-2.4,-.5h1.1V73.5h7.5v-.6c0,.4,.1,.8,.1,1.3Z" class="g7k"/>
<path d="M73.7,74.2c0,3.5,-2.7,6.3,-6.1,6.3c-.8,0,-1.7,-.2,-2.4,-.5h1.1V73.5h7.3v-.6c.1,.4,.1,.8,.1,1.3Z" class="g7l"/>
<path d="M73.6,74.2c0,3.4,-2.7,6.2,-6,6.2c-.8,0,-1.6,-.2,-2.3,-.5h1V73.5h7.2v-.6c0,.4,.1,.8,.1,1.3Z" class="g7m"/>
<path d="M73.4,74.2c0,3.3,-2.6,6,-5.8,6c-.8,0,-1.6,-.2,-2.3,-.5h1V73.5h7V73c.1,.3,.1,.8,.1,1.2Z" class="g7n"/>
<path d="M73.3,74.2c0,3.2,-2.6,5.8,-5.7,5.8c-.8,0,-1.5,-.1,-2.2,-.4h.9V73.5h6.9V73c.1,.4,.1,.8,.1,1.2Z" class="g7o"/>
<path d="M73.1,74.2c0,3.1,-2.4,5.7,-5.5,5.7c-.8,0,-1.5,-.2,-2.1,-.5h.8V73.5H73V73c.1,.4,.1,.8,.1,1.2Z" class="g7p"/>
<path d="M73,74.2c0,3,-2.4,5.5,-5.4,5.5c-.7,0,-1.4,-.1,-2.1,-.4h.8V73.5h6.6V73c.1,.4,.1,.8,.1,1.2Z" class="g7q"/>
<path d="M72.8,74.2c0,3,-2.3,5.4,-5.2,5.4c-.7,0,-1.4,-.2,-2,-.4h.7V73.5h6.4v-.4c.1,.3,.1,.7,.1,1.1Z" class="g7r"/>
<path d="M72.7,74.2c0,2.9,-2.3,5.2,-5.1,5.2c-.7,0,-1.4,-.1,-2,-.4h.7V73.5h6.3v-.4c.1,.3,.1,.7,.1,1.1Z" class="g7s"/>
<path d="M72.5,74.2c0,2.8,-2.2,5.1,-4.9,5.1c-.7,0,-1.3,-.2,-1.9,-.4h.6V73.5h6.1v-.4c.1,.4,.1,.7,.1,1.1Z" class="g7t"/>
<path d="M72.4,74.2c0,2.7,-2.2,4.9,-4.8,4.9c-.7,0,-1.3,-.1,-1.9,-.4h.6V73.5H72V72.2c.3,.6,.4,1.3,.4,2Z" class="g7u"/>
<path d="M72.2,74.2c0,2.6,-2,4.8,-4.6,4.8c-.6,0,-1.2,-.2,-1.8,-.4h.5V73.5h5.6V72.3c.2,.6,.3,1.2,.3,1.9Z" class="g7v"/>
<path d="M72.1,74.2c0,2.5,-2,4.6,-4.5,4.6c-.6,0,-1.2,-.1,-1.7,-.4h.4V73.5h5.4V72.4c.3,.5,.4,1.1,.4,1.8Z" class="g7w"/>
<path d="M71.9,74.2c0,2.4,-1.9,4.5,-4.3,4.5c-.6,0,-1.2,-.2,-1.7,-.4h.4V73.5h5.3V72.4c.2,.6,.3,1.1,.3,1.8Z" class="g7x"/>
<path d="M71.8,74.2c0,2.4,-1.9,4.3,-4.2,4.3c-.6,0,-1.1,-.1,-1.6,-.3h.3V73.5h5.2v-1c.2,.5,.3,1.1,.3,1.7Z" class="g7y"/>
<path d="M71.6,74.2c0,2.3,-1.8,4.1,-4,4.1C67,78.3,66.5,78.2,66,78h.3V73.5h5v-1c.2,.5,.3,1.1,.3,1.7Z" class="g7z"/>
<path d="M71.5,74.2c0,2.2,-1.7,4,-3.9,4c-.5,0,-1,-.1,-1.5,-.3h.2V73.5h4.9v-.9c.2,.5,.3,1,.3,1.6Z" class="g80"/>
<path d="M71.3,74.2c0,2.1,-1.6,3.8,-3.7,3.8c-.5,0,-1,-.1,-1.5,-.3h.2V73.5h4.8v-.8c.1,.4,.2,.9,.2,1.5Z" class="g81"/>
<path d="M71.2,74.2c0,2,-1.6,3.7,-3.6,3.7c-1,0,-1.9,-.4,-2.5,-1.1h1.2V73.5h4.6v-.8c.2,.5,.3,1,.3,1.5Z" class="g82"/>
<path d="M71,74.2c0,1.9,-1.5,3.5,-3.4,3.5c-.9,0,-1.8,-.4,-2.4,-1h1.1V73.5h4.5v-.7c.2,.4,.2,.9,.2,1.4Z" class="g83"/>
<path d="M70.9,74.2c0,1.8,-1.5,3.4,-3.3,3.4c-.9,0,-1.7,-.4,-2.3,-1h1V73.5h4.3v-.7c.2,.4,.3,.9,.3,1.4Z" class="g84"/>
<path d="M70.7,74.2c0,1.8,-1.4,3.2,-3.1,3.2c-.9,0,-1.6,-.3,-2.2,-.9h.9v-3h4.2v-.6c.2,.4,.2,.8,.2,1.3Z" class="g85"/>
<path d="M70.6,74.2c0,1.7,-1.3,3.1,-3,3.1c-.8,0,-1.6,-.4,-2.1,-.9h.8V73.5h4.1V73c.1,.3,.2,.7,.2,1.2Z" class="g86"/>
<path d="M70.4,74.2c0,1.6,-1.2,2.9,-2.8,2.9c-.8,0,-1.5,-.3,-2,-.9h.7V73.5h3.9V73c.2,.4,.2,.8,.2,1.2Z" class="g87"/>
<path d="M70.3,74.2c0,1.5,-1.2,2.8,-2.7,2.8c-.7,0,-1.4,-.4,-1.9,-.9h.6V73.5h3.2V72.2c.5,.5,.8,1.2,.8,2Z" class="g88"/>
<path d="M70.1,74.2c0,1.4,-1.1,2.6,-2.5,2.6c-1.4,0,-2.5,-1.2,-2.5,-2.6h1.2v-.7h3.1V72.3c.5,.5,.7,1.1,.7,1.9Z" class="g89"/>
<path d="M70,74.2c0,1.3,-1.1,2.4,-2.4,2.4c-1.3,0,-2.4,-1.1,-2.4,-2.4h1.1v-.7h3V72.4c.4,.5,.7,1.1,.7,1.8Z" class="g8a"/>
<path d="M69.8,74.2c0,1.2,-1,2.3,-2.2,2.3c-1.2,0,-2.2,-1.1,-2.2,-2.3h.9v-.7h2.9v-1c.4,.4,.6,1,.6,1.7Z" class="g8b"/>
<path d="M69.7,74.2c0,1.2,-.9,2.1,-2.1,2.1c-1.2,0,-2.1,-.9,-2.1,-2.1h.8v-.7h2.8v-.9c.4,.4,.6,1,.6,1.6Z" class="g8c"/>
<path d="M69.6,74.2c0,1.1,-.9,2,-2,2c-1.1,0,-1.9,-.9,-1.9,-2h.6v-.7H69v-.8c.3,.4,.6,.9,.6,1.5Z" class="g8d"/>
<path d="M69.4,74.2c0,1,-.8,1.8,-1.8,1.8c-1,0,-1.8,-.8,-1.8,-1.8c0,-1.1,.8,-1.9,1.8,-1.9c1,0,1.8,.8,1.8,1.9Z" class="g8e"/>
<path d="M69.3,74.2c0,.9,-.8,1.7,-1.7,1.7c-.9,0,-1.6,-.8,-1.6,-1.7c0,-1,.7,-1.7,1.6,-1.7c.9,0,1.7,.7,1.7,1.7Z" class="g8f"/>
<path d="M69.1,74.2c0,.8,-.7,1.5,-1.5,1.5c-.8,0,-1.5,-.7,-1.5,-1.5c0,-.9,.7,-1.6,1.5,-1.6c.8,0,1.5,.7,1.5,1.6Z" class="g8g"/>
<path d="M69,74.2c0,.7,-.7,1.4,-1.4,1.4c-.7,0,-1.3,-.7,-1.3,-1.4c0,-.8,.6,-1.4,1.3,-1.4c.7,0,1.4,.6,1.4,1.4Z" class="g8h"/>
<path d="M68.8,74.2c0,.7,-.5,1.2,-1.2,1.2c-.7,0,-1.2,-.5,-1.2,-1.2c0,-.7,.5,-1.3,1.2,-1.3c.7,0,1.2,.6,1.2,1.3Z" class="g8i"/>
<path d="M68.7,74.2c0,.6,-.5,1.1,-1.1,1.1c-.6,0,-1,-.5,-1,-1.1c0,-.6,.4,-1.1,1,-1.1c.6,0,1.1,.5,1.1,1.1Z" class="g8j"/>
<path d="M68.5,74.2c0,.5,-.4,.9,-.9,.9c-.5,0,-.9,-.4,-.9,-.9c0,-.5,.4,-1,.9,-1c.5,0,.9,.5,.9,1Z" class="g8k"/>
<path d="M68.4,74.2c0,.4,-.4,.7,-.8,.7c-.4,0,-.7,-.3,-.7,-.7c0,-.5,.3,-.8,.7,-.8c.4,0,.8,.3,.8,.8Z" class="g8l"/>
<path d="M68.2,74.2c0,.3,-.3,.6,-.6,.6c-.3,0,-.6,-.3,-.6,-.6c0,-.4,.3,-.7,.6,-.7c.3,0,.6,.3,.6,.7Z" class="g8m"/>
</g>
<path d="M68.1,74.2c0,.2,-.2,.4,-.5,.4c-.2,0,-.4,-.2,-.4,-.4c0,-.3,.2,-.5,.4,-.5c.3,0,.5,.2,.5,.5Z" class="g8n"/>
<path d="M67.9,74.2c0,.1,-.1,.3,-.3,.3c-.2,0,-.3,-.2,-.3,-.3c0,-.2,.1,-.3,.3,-.3c.2,0,.3,.1,.3,.3Z" class="g8o"/>
<path d="M67.8,74.2c0,.1,-.1,.1,-.2,.1q-.1,0,-.1,-.1c0,-.1,0,-.2,.1,-.2c.1,0,.2,.1,.2,.2Z" class="g8p"/>
<g clip-path="url(#c3)">
<path d="M75.6,82.9h9.1v31.7H75.6V82.9Z" class="g8q"/>
<path d="M84.9,83.8v29.5c-.9,.3,-1.9,.6,-2.8,.8c-2,.4,-4,.6,-6.1,.6c-.5,0,-1,0,-1.5,0h.9v-32h9.5Z" class="g8q"/>
<path d="M84.9,83.8v29.1h.7c-.3,.1,-.5,.1,-.7,.2c-1,.3,-1.9,.6,-2.9,.8c-1.9,.4,-3.9,.6,-6,.6c-.5,0,-1,0,-1.5,-.1h.9V82.7h9.5Z" class="g8r"/>
<path d="M84.9,83.8v28.6h1.3c-.5,.2,-.9,.4,-1.4,.5c-.9,.3,-1.9,.5,-2.8,.8c-1.9,.4,-3.9,.6,-6,.6c-.5,0,-1,0,-1.5,-.1h.9V82.7h9.5Z" class="g8s"/>
<path d="M84.9,83.8v28.4h1.2c-.4,.2,-.9,.3,-1.4,.5c-.9,.3,-1.8,.5,-2.8,.7c-1.9,.4,-3.8,.7,-5.9,.7c-.5,0,-1,-.1,-1.5,-.1h.9V82.7h9.5Z" class="g8t"/>
<path d="M84.9,83.8V112H86c-.4,.2,-.9,.3,-1.3,.5c-.9,.3,-1.9,.5,-2.8,.7c-1.9,.4,-3.8,.6,-5.9,.6c-.5,0,-1,0,-1.4,0h.8V82.7h9.5Z" class="g8u"/>
<path d="M84.9,83.8v28H86c-.5,.2,-.9,.3,-1.4,.5c-.9,.3,-1.8,.5,-2.7,.7c-1.9,.4,-3.9,.6,-5.9,.6c-.4,0,-.9,0,-1.4,0h.8V82.7h9.5Z" class="g8v"/>
<path d="M84.9,83.8v27.8h1c-.5,.2,-.9,.3,-1.3,.5c-.9,.3,-1.9,.5,-2.8,.7c-1.8,.4,-3.8,.6,-5.8,.6c-.4,0,-.9,0,-1.4,0h.8V82.7h9.5Z" class="g8w"/>
<path d="M84.9,83.8v27.6h.9c-.4,.2,-.9,.3,-1.3,.5c-.9,.3,-1.8,.5,-2.7,.7c-1.9,.4,-3.8,.6,-5.8,.6c-.4,0,-.9,0,-1.4,0h.8V82.7h9.5Z" class="g8x"/>
<path d="M84.9,83.8v27.4h.8c-.4,.2,-.8,.3,-1.3,.5c-.8,.3,-1.8,.5,-2.7,.7c-1.8,.4,-3.7,.6,-5.7,.6c-.4,0,-.9,0,-1.4,-.1h.8V82.7h9.5Z" class="g8y"/>
<path d="M84.9,83.8V111h.8c-.5,.2,-.9,.3,-1.3,.5c-.9,.2,-1.8,.5,-2.7,.7c-1.8,.4,-3.7,.6,-5.7,.6c-.4,0,-.9,0,-1.4,-.1h.8v-30h9.5Z" class="g8z"/>
<path d="M84.9,83.8v27h.7c-.4,.2,-.9,.3,-1.3,.5c-.9,.2,-1.7,.5,-2.7,.7c-1.8,.4,-3.6,.6,-5.6,.6c-.4,0,-.9,-.1,-1.4,-.1h.8V82.7h9.5Z" class="g90"/>
<path d="M84.9,83.8v26.8h.6c-.4,.2,-.8,.3,-1.3,.5c-.8,.2,-1.7,.5,-2.6,.7c-1.8,.3,-3.6,.5,-5.6,.5c-.4,0,-.9,0,-1.4,0h.8V82.7h9.5Z" class="g91"/>
<path d="M84.9,83.8v26.6h.6c-.5,.2,-.9,.3,-1.3,.5c-.9,.2,-1.7,.5,-2.6,.7c-1.8,.3,-3.7,.5,-5.6,.5c-.4,0,-.9,0,-1.4,0h.8V82.7h9.5Z" class="g92"/>
<path d="M84.9,83.8v26.4h.5c-.4,.2,-.8,.3,-1.3,.4c-.8,.3,-1.7,.6,-2.6,.7c-1.7,.4,-3.6,.6,-5.5,.6c-.4,0,-.9,0,-1.4,0h.8V82.7h9.5Z" class="g93"/>
<path d="M84.9,83.8V110h.4c-.4,.2,-.8,.3,-1.2,.4c-.9,.3,-1.7,.5,-2.6,.7c-1.8,.4,-3.6,.6,-5.5,.6c-.4,0,-.9,0,-1.3,0h.7v-29h9.5Z" class="g94"/>
<path d="M84.9,83.8v26h.3c-.4,.2,-.8,.3,-1.2,.4c-.8,.3,-1.7,.5,-2.6,.7c-1.7,.4,-3.5,.6,-5.4,.6c-.4,0,-.9,0,-1.3,-.1h.7V82.7h9.5Z" class="g95"/>
<path d="M84.9,83.8v25.8h.3c-.4,.2,-.8,.3,-1.3,.4c-.8,.3,-1.6,.5,-2.5,.7c-1.7,.4,-3.5,.6,-5.4,.6c-.4,0,-.9,0,-1.3,-.1h.7V82.7h9.5Z" class="g96"/>
<path d="M84.9,83.8v25.6h.2c-.4,.2,-.8,.3,-1.2,.4c-.8,.3,-1.7,.5,-2.5,.7c-1.8,.4,-3.5,.6,-5.4,.6c-.4,0,-.9,-.1,-1.3,-.1h.7V82.7h9.5Z" class="g97"/>
<path d="M84.9,83.8v24.9h1.3c-3.1,1.4,-6.5,2.1,-10.2,2.1c-.4,0,-.9,0,-1.3,0h.7V82.7h9.5Z" class="g98"/>
<path d="M84.9,83.8v24.7h1.2c-3.1,1.4,-6.5,2.1,-10.1,2.1c-.4,0,-.8,0,-1.3,0h.7V82.7h9.5Z" class="g99"/>
<path d="M84.9,83.8v24.5h1.2c-3.1,1.4,-6.5,2.1,-10.1,2.1c-.4,0,-.8,0,-1.3,0h.7V82.7h9.5Z" class="g9a"/>
<path d="M84.9,83.8v24.3H86c-3.1,1.4,-6.4,2.1,-10,2.1c-.4,0,-.8,0,-1.3,0h.7V82.7h9.5Z" class="g9b"/>
<path d="M84.9,83.8v24.1h1c-3,1.3,-6.4,2.1,-9.9,2.1c-.4,0,-.8,0,-1.3,-.1h.7V82.7h9.5Z" class="g9c"/>
<path d="M84.9,83.8v23.9h.9c-3,1.3,-6.3,2.1,-9.8,2.1c-.4,0,-.8,0,-1.2,-.1h.6v-27h9.5Z" class="g9d"/>
<path d="M84.9,83.8v23.7h.8c-2.9,1.3,-6.2,2.1,-9.7,2.1c-.4,0,-.8,-.1,-1.2,-.1h.6V82.7h9.5Z" class="g9e"/>
<path d="M84.9,83.8v23.5h.8c-3,1.3,-6.2,2,-9.7,2c-.4,0,-.8,0,-1.2,0h.6V82.7h9.5Z" class="g9f"/>
<path d="M84.9,83.8v23.3h.7c-3,1.3,-6.2,2,-9.6,2c-.4,0,-.8,0,-1.2,0h.6V82.7h9.5Z" class="g9g"/>
<path d="M84.9,83.8v23.1h.6c-2.9,1.3,-6.1,2,-9.5,2c-.4,0,-.8,0,-1.2,0h.6V82.7h9.5Z" class="g9h"/>
<path d="M84.9,83.8v22.9h.5c-2.9,1.3,-6,2,-9.4,2c-.4,0,-.8,0,-1.2,0h.6v-26h9.5Z" class="g9i"/>
<path d="M84.9,83.8v22.7h.4c-2.8,1.3,-6,2,-9.3,2c-.4,0,-.8,0,-1.2,-.1h.6V82.7h9.5Z" class="g9j"/>
<path d="M84.9,83.8v22.5h.3c-2.8,1.3,-5.9,2,-9.2,2c-.4,0,-.8,0,-1.2,-.1h.6V82.7h9.5Z" class="g9k"/>
<path d="M84.9,83.8v22.3h.3c-2.8,1.3,-5.9,2,-9.2,2c-.4,0,-.8,-.1,-1.2,-.1h.6V82.7h9.5Z" class="g9l"/>
<path d="M84.9,83.8v22.1h.2c-2.8,1.3,-5.8,1.9,-9.1,1.9c-.4,0,-.8,0,-1.1,0h.5V82.7h9.5Z" class="g9m"/>
<path d="M84.9,83.8v22H85c-2.7,1.2,-5.8,1.8,-9,1.8c-.3,0,-.7,0,-1.1,0h.5V82.7h9.5Z" class="g9n"/>
<path d="M84.9,83.8v21.8c-2.7,1.1,-5.7,1.8,-8.9,1.8c-.3,0,-.7,0,-1.1,0h.5V82.7h9.5Z" class="g9o"/>
<path d="M84.9,83.8v21.1h.9c-.3,.2,-.6,.3,-1,.5c-2.7,1.1,-5.6,1.8,-8.8,1.8c-.3,0,-.7,0,-1.1,0h.5V82.7h9.5Z" class="g9p"/>
<path d="M84.9,83.8v20.9h.9c-.4,.2,-.7,.3,-1,.5C82.1,106.3,79.1,107,76,107c-.3,0,-.7,0,-1.1,0h.5V82.7h9.5Z" class="g9q"/>
<path d="M84.9,83.8v20.7h.8c-.4,.2,-.7,.3,-1,.5c-2.7,1.1,-5.6,1.8,-8.7,1.8c-.3,0,-.7,0,-1.1,-.1h.5v-24h9.5Z" class="g9r"/>
<path d="M84.9,83.8v20.5h.7c-.3,.2,-.7,.3,-1,.5c-2.6,1.1,-5.5,1.8,-8.6,1.8c-.3,0,-.7,-.1,-1.1,-.1h.5V82.7h9.5Z" class="g9s"/>
<path d="M84.9,83.8v20.3h.6c-.3,.2,-.7,.3,-1,.5c-2.6,1.1,-5.4,1.7,-8.5,1.7c-.3,0,-.7,0,-1.1,0h.5V82.7h9.5Z" class="g9t"/>
<path d="M84.9,83.8v20.1h.5c-.3,.2,-.6,.3,-1,.5c-2.5,1.1,-5.4,1.7,-8.4,1.7c-.3,0,-.7,0,-1.1,0h.5V82.7h9.5Z" class="g9u"/>
<path d="M84.9,83.8v19.9h.4c-.3,.2,-.6,.3,-.9,.5c-2.6,1.1,-5.4,1.7,-8.4,1.7c-.3,0,-.7,0,-1.1,0h.5V82.7h9.5Z" class="g9v"/>
<path d="M84.9,83.8v19.3h1.2c-.6,.3,-1.2,.6,-1.8,.9c-2.5,1.1,-5.3,1.7,-8.3,1.7c-.3,0,-.7,0,-1,0h.4v-23h9.5Z" class="g9w"/>
<path d="M84.9,83.8v19.1H86c-.6,.3,-1.2,.6,-1.8,.9c-2.5,1.1,-5.3,1.7,-8.2,1.7c-.3,0,-.7,0,-1,0h.4V82.7h9.5Z" class="g9x"/>
<path d="M84.9,83.8v18.9h1c-.6,.3,-1.2,.6,-1.8,.9c-2.5,1.1,-5.2,1.7,-8.1,1.7c-.3,0,-.7,0,-1,-.1h.4V82.7h9.5Z" class="g9y"/>
<path d="M84.9,83.8v18.7h.9c-.5,.3,-1.1,.6,-1.8,.9c-2.4,1.1,-5.1,1.6,-8,1.6c-.3,0,-.7,0,-1,0h.4V82.7h9.5Z" class="g9z"/>
<path d="M84.9,83.8v18.5h.8c-.5,.3,-1.1,.6,-1.7,.9c-2.5,1,-5.1,1.6,-8,1.6c-.3,0,-.7,0,-1,0h.4V82.7h9.5Z" class="ga0"/>
<path d="M84.9,83.8v18.3h.7c-.5,.3,-1.1,.6,-1.7,.9c-2.4,1,-5.1,1.6,-7.9,1.6c-.3,0,-.6,0,-1,0h.4V82.7h9.5Z" class="ga1"/>
<path d="M84.9,83.8v18.1h.6c-.5,.3,-1.1,.6,-1.7,.9c-2.4,1,-5,1.6,-7.8,1.6c-.3,0,-.6,0,-1,0h.4V82.7h9.5Z" class="ga2"/>
<path d="M84.9,83.8v17.9h.5c-.5,.3,-1.1,.6,-1.7,.9c-2.3,1,-4.9,1.6,-7.7,1.6c-.3,0,-.6,0,-1,0h.4V82.7h9.5Z" class="ga3"/>
<path d="M84.9,83.8v17.7h.4c-.5,.4,-1.1,.6,-1.7,.9c-2.3,1,-4.9,1.6,-7.6,1.6c-.3,0,-.6,0,-1,0h.4V82.7h9.5Z" class="ga4"/>
<path d="M84.9,83.8v17.6h.3c-.5,.3,-1.1,.5,-1.6,.8c-2.4,1,-4.9,1.6,-7.6,1.6c-.3,0,-.6,0,-.9,-.1h.3v-21h9.5Z" class="ga5"/>
<path d="M84.9,83.8v17.4h.2c-.5,.3,-1.1,.5,-1.6,.8c-2.3,1,-4.8,1.5,-7.5,1.5c-.3,0,-.6,0,-.9,0h.3V82.7h9.5Z" class="ga6"/>
<path d="M84.9,83.8V101H85c-.5,.3,-1,.6,-1.6,.8c-2.3,1,-4.7,1.5,-7.4,1.5c-.6,0,-1.2,0,-1.9,-.1h1.3V82.7h9.5Z" class="ga7"/>
<path d="M84.9,83.8v17c-.5,.3,-1,.6,-1.6,.8c-2.2,1,-4.7,1.5,-7.3,1.5c-.6,0,-1.2,0,-1.9,-.1h1.3V82.7h9.5Z" class="ga8"/>
<path d="M84.9,83.8v16.3h.7c-.2,.2,-.5,.4,-.8,.5c-.5,.3,-1,.6,-1.6,.8c-2.2,1,-4.6,1.5,-7.2,1.5c-.6,0,-1.2,0,-1.8,-.1h1.2V82.7h9.5Z" class="ga9"/>
<path d="M84.9,83.8V100h.6c-.2,.1,-.5,.3,-.8,.4c-.5,.3,-1,.6,-1.5,.8c-2.2,1,-4.6,1.5,-7.2,1.5c-.6,0,-1.2,0,-1.8,-.1h1.2V82.7h9.5Z" class="gaa"/>
<path d="M84.9,83.8V99.3h1.2c-.9,.7,-2,1.2,-3,1.7c-2.2,1,-4.6,1.5,-7.1,1.5c-.6,0,-1.2,-.1,-1.8,-.1h1.2V82.7h9.5Z" class="gab"/>
<path d="M84.9,83.8V99.1H86c-.9,.7,-1.9,1.2,-3,1.7c-2.1,.9,-4.5,1.5,-7,1.5c-.6,0,-1.2,-.1,-1.8,-.1h1.2V82.7h9.5Z" class="gac"/>
<path d="M84.9,83.8V98.9h1c-.9,.7,-1.9,1.3,-3,1.7c-2.1,.9,-4.4,1.4,-6.9,1.4c-.6,0,-1.2,0,-1.8,0h1.2V82.7h9.5Z" class="gad"/>
<path d="M84.9,83.8v15h.9c-.9,.6,-1.9,1.2,-3,1.6c-2.1,.9,-4.3,1.4,-6.8,1.4c-.6,0,-1.1,0,-1.7,-.1h1.1v-19h9.5Z" class="gae"/>
<path d="M84.9,83.8V98.6h.8c-.9,.6,-1.9,1.2,-3,1.6c-2,.9,-4.3,1.4,-6.7,1.4c-.5,0,-1.1,0,-1.7,-.1h1.1V82.7h9.5Z" class="gaf"/>
<path d="M84.9,83.8V98.4h.7c-1,.6,-1.9,1.2,-2.9,1.6c-2.1,.9,-4.3,1.4,-6.7,1.4c-.5,0,-1.1,0,-1.7,-.1h1.1V82.7h9.5Z" class="gag"/>
<path d="M84.9,83.8V98.2h.5c-.9,.6,-1.8,1.2,-2.8,1.6c-2,.9,-4.2,1.4,-6.6,1.4c-.5,0,-1.1,0,-1.7,-.1h1.1V82.7h9.5Z" class="gah"/>
<path d="M84.9,83.8V98h.4c-.9,.7,-1.8,1.2,-2.8,1.6c-2,.9,-4.2,1.4,-6.5,1.4c-.5,0,-1.1,-.1,-1.6,-.1h1V82.7h9.5Z" class="gai"/>
<path d="M84.9,83.8V97.9h.3c-.9,.6,-1.8,1.1,-2.8,1.5c-1.9,.9,-4.1,1.4,-6.4,1.4c-.5,0,-1.1,-.1,-1.6,-.1h1v-18h9.5Z" class="gaj"/>
<path d="M84.9,83.8V97.7h.2c-.9,.6,-1.8,1.1,-2.8,1.5c-1.9,.9,-4,1.3,-6.3,1.3c-.5,0,-1.1,0,-1.6,0h1V82.7h9.5Z" class="gak"/>
<path d="M84.9,83.8V97.5H85c-.9,.6,-1.8,1.1,-2.7,1.5c-1.9,.9,-4,1.3,-6.3,1.3c-.5,0,-1,0,-1.6,-.1h1V82.7h9.5Z" class="gal"/>
<path d="M84.9,83.8V96.4h1.2c-.4,.3,-.8,.6,-1.2,.9c-.9,.6,-1.8,1.1,-2.7,1.5c-1.9,.9,-4,1.3,-6.2,1.3c-.5,0,-1,0,-1.6,-.1h1V82.7h9.5Z" class="gam"/>
<path d="M84.9,83.8V96.2h1c-.3,.4,-.7,.7,-1.2,1c-.8,.5,-1.7,1,-2.6,1.4c-1.9,.9,-3.9,1.3,-6.1,1.3c-.5,0,-1,0,-1.5,-.1h.9V82.7h9.5Z" class="gan"/>
<path d="M84.9,83.8V96.1h.9c-.4,.3,-.8,.6,-1.2,.9c-.8,.5,-1.7,1,-2.6,1.4c-1.8,.8,-3.8,1.3,-6,1.3c-.5,0,-1,0,-1.5,-.1h.9V82.7h9.5Z" class="gao"/>
<path d="M84.9,83.8V95.9h.8c-.4,.3,-.8,.6,-1.2,.9c-.8,.6,-1.7,1,-2.6,1.4C80.1,99,78.1,99.5,76,99.5c-.5,0,-1,-.1,-1.5,-.1h.9V82.7h9.5Z" class="gap"/>
<path d="M84.9,83.8V95.7h.6c-.3,.3,-.7,.6,-1.1,.9c-.8,.6,-1.6,1.1,-2.5,1.4c-1.8,.8,-3.8,1.3,-5.9,1.3c-.5,0,-1,-.1,-1.5,-.1h.9V82.7h9.5Z" class="gaq"/>
<path d="M84.9,83.8V95.6h.5c-.4,.3,-.7,.6,-1.1,.8c-.8,.6,-1.6,1.1,-2.5,1.5C80,98.6,78.1,99,76,99c-.5,0,-1,0,-1.5,0h.9V82.7h9.5Z" class="gar"/>
<path d="M84.9,83.8V95.4h.4c-.4,.3,-.8,.6,-1.1,.9c-.8,.5,-1.6,1,-2.5,1.4C80,98.4,78.1,98.8,76,98.8c-.5,0,-.9,0,-1.4,0h.8V82.7h9.5Z" class="gas"/>
<path d="M84.9,83.8V94.3h1.3C83.6,97,80,98.6,76,98.6c-.4,0,-.9,0,-1.4,-.1h.8V82.7h9.5Z" class="gat"/>
<path d="M84.9,83.8V94.1H86c-2.5,2.7,-6.1,4.3,-10,4.3c-.4,0,-.9,0,-1.4,-.1h.8V82.7h9.5Z" class="gau"/>
<path d="M84.9,83.8V94h1c-2.5,2.6,-6,4.2,-9.9,4.2c-.4,0,-.9,0,-1.4,-.1h.8V82.7h9.5Z" class="gav"/>
<path d="M84.9,83.8v10h.8C83.2,96.4,79.8,98,76,98c-.4,0,-.9,0,-1.4,-.1h.8V82.7h9.5Z" class="gaw"/>
<path d="M84.9,83.8v9.9h.7c-2.5,2.5,-5.8,4.1,-9.6,4.1c-.4,0,-.9,-.1,-1.3,-.1h.7v-15h9.5Z" class="gax"/>
<path d="M84.9,83.8v9.7h.5c-2.4,2.5,-5.7,4,-9.4,4c-.4,0,-.9,0,-1.3,0h.7V82.7h9.5Z" class="gay"/>
<path d="M84.9,83.8v9.6h.4c-2.4,2.4,-5.6,3.9,-9.3,3.9c-.4,0,-.8,0,-1.3,0h.7V82.7h9.5Z" class="gaz"/>
<path d="M84.9,83.8v9.4h.2c-2.3,2.4,-5.5,3.9,-9.1,3.9c-.4,0,-.8,0,-1.3,-.1h.7V82.7h9.5Z" class="gb0"/>
<path d="M84.9,83.8v9.3H85c-2.3,2.3,-5.5,3.8,-9,3.8c-.4,0,-.8,0,-1.2,-.1h.6V82.7h9.5Z" class="gb1"/>
<path d="M84.9,83.8V92h.7c-.2,.3,-.5,.6,-.8,.9c-2.2,2.3,-5.3,3.8,-8.8,3.8c-.4,0,-.8,0,-1.2,-.1h.6V82.7h9.5Z" class="gb2"/>
<path d="M84.9,83.8v7.1h1.3c-.4,.7,-.9,1.3,-1.5,1.9c-2.2,2.3,-5.3,3.7,-8.7,3.7c-.4,0,-.8,0,-1.2,-.1h.6V82.7h9.5Z" class="gb3"/>
<path d="M84.9,83.8v7H86c-.4,.6,-.9,1.3,-1.4,1.8c-2.2,2.3,-5.2,3.7,-8.6,3.7c-.4,0,-.8,-.1,-1.2,-.1h.6V82.7h9.5Z" class="gb4"/>
<path d="M84.9,83.8v6.9h.9c-.4,.6,-.9,1.2,-1.4,1.8C82.3,94.7,79.3,96,76,96c-.4,0,-.8,0,-1.2,0h.6V82.7h9.5Z" class="gb5"/>
<path d="M84.9,83.8v6.7h.8c-.4,.7,-.9,1.3,-1.4,1.8c-2.1,2.2,-5,3.5,-8.3,3.5c-.4,0,-.7,0,-1.1,0h.5V82.7h9.5Z" class="gb6"/>
<path d="M84.9,83.8v6.6h.6c-.4,.6,-.9,1.2,-1.4,1.8C82,94.3,79.2,95.6,76,95.6c-.3,0,-.7,0,-1.1,0h.5V82.7h9.5Z" class="gb7"/>
<path d="M84.9,83.8v6.5h.4c-.4,.6,-.8,1.2,-1.3,1.7c-2.1,2.1,-4.9,3.4,-8,3.4c-.3,0,-.7,0,-1.1,-.1h.5V82.7h9.5Z" class="gb8"/>
<path d="M84.9,83.8v4.4h1.3c-.6,1.4,-1.4,2.6,-2.4,3.7c-2,2,-4.7,3.3,-7.8,3.3c-.3,0,-.7,0,-1.1,-.1h.5V82.7h9.5Z" class="gb9"/>
<path d="M84.9,83.8v4.4H86c-.6,1.3,-1.4,2.5,-2.3,3.5C81.7,93.7,79,95,76,95c-.3,0,-.7,0,-1.1,-.1h.5V82.7h9.5Z" class="gba"/>
<path d="M84.9,83.8v4.3h.9c-.5,1.3,-1.3,2.5,-2.3,3.5C81.6,93.5,79,94.8,76,94.8c-.3,0,-.7,-.1,-1,-.1h.4v-12h9.5Z" class="gbb"/>
<path d="M84.9,83.8V88h.7c-.5,1.3,-1.3,2.4,-2.2,3.4c-1.9,1.9,-4.5,3.1,-7.4,3.1c-.3,0,-.7,0,-1,0h.4V82.7h9.5Z" class="gbc"/>
<path d="M86.2,83.8c0,5.8,-4.5,10.5,-10.2,10.5c-.3,0,-.6,0,-1,0h.4V82.7h9.5v1.1Z" class="gbd"/>
<path d="M86,83.8c0,5.7,-4.5,10.3,-10,10.3c-.3,0,-.6,0,-1,0h.4V82.7h9.5v1.1Z" class="gbe"/>
<path d="M85.8,83.8c0,5.6,-4.4,10.1,-9.8,10.1c-.3,0,-.6,0,-.9,-.1h.3V82.7h9.5v1.1Z" class="gbf"/>
<path d="M85.6,83.8c0,5.5,-4.3,9.9,-9.6,9.9c-.6,0,-1.3,-.1,-1.9,-.2h1.3V82.7h9.5v1.1Z" class="gbg"/>
<path d="M85.4,83.8c0,5.4,-4.2,9.7,-9.4,9.7c-.6,0,-1.2,-.1,-1.8,-.2h1.2V82.7h9.5v1.1Z" class="gbh"/>
<path d="M85.2,83.8c0,5.2,-4.1,9.5,-9.2,9.5c-.6,0,-1.2,-.1,-1.8,-.2h1.2V82.7h9.5v1.1Z" class="gbi"/>
<path d="M85,83.8C85,88.9,81,93,76,93c-.6,0,-1.2,0,-1.7,-.1h1.1V82.7h9.4V82c.1,.6,.2,1.2,.2,1.8Z" class="gbj"/>
<path d="M84.8,83.8c0,5,-3.9,9,-8.8,9c-.6,0,-1.1,0,-1.7,-.2h1.1V82.7h9.2V82c.1,.6,.2,1.2,.2,1.8Z" class="gbk"/>
<path d="M84.5,83.8c0,4.9,-3.8,8.8,-8.5,8.8c-.5,0,-1.1,0,-1.7,-.2h1.1V82.7h9v-.6c.1,.5,.1,1.1,.1,1.7Z" class="gbl"/>
<path d="M84.3,83.8c0,4.8,-3.7,8.6,-8.3,8.6c-.5,0,-1.1,-.1,-1.6,-.2h1V82.7h8.8v-.6c.1,.6,.1,1.1,.1,1.7Z" class="gbm"/>
<path d="M84.1,83.8c0,4.6,-3.6,8.4,-8.1,8.4c-.5,0,-1.1,-.1,-1.6,-.2h1V82.7H84v-.6c.1,.6,.1,1.1,.1,1.7Z" class="gbn"/>
<path d="M83.9,83.8C83.9,88.3,80.4,92,76,92c-.5,0,-1,-.1,-1.5,-.2h.9V82.7h8.4v-.5c.1,.5,.1,1.1,.1,1.6Z" class="gbo"/>
<path d="M83.7,83.8c0,4.4,-3.4,8,-7.7,8c-.5,0,-1,-.1,-1.5,-.2h.9V82.7h8.2v-.5c.1,.5,.1,1.1,.1,1.6Z" class="gbp"/>
<path d="M83.5,83.8c0,4.3,-3.3,7.7,-7.5,7.7c-.5,0,-1,0,-1.5,-.1h.9V82.7h8v-.4c.1,.5,.1,1,.1,1.5Z" class="gbq"/>
<path d="M83.3,83.8c0,4.2,-3.2,7.5,-7.3,7.5c-.5,0,-.9,0,-1.4,-.1h.8V82.7h7.8v-.4c.1,.5,.1,1,.1,1.5Z" class="gbr"/>
<path d="M83.1,83.8c0,4,-3.2,7.3,-7.1,7.3c-.4,0,-.9,0,-1.4,-.1h.8V82.7H83v-.3c0,.4,.1,.9,.1,1.4Z" class="gbs"/>
<path d="M82.9,83.8c0,3.9,-3.1,7.1,-6.9,7.1c-.4,0,-.9,-.1,-1.3,-.1h.7V82.7h7.4v-.3c0,.5,.1,.9,.1,1.4Z" class="gbt"/>
<path d="M82.7,83.8c0,3.8,-3,6.9,-6.7,6.9c-.4,0,-.9,-.1,-1.3,-.2h.7V82.7h7.1v-.3c.1,.5,.2,.9,.2,1.4Z" class="gbu"/>
<path d="M82.5,83.8c0,3.7,-2.9,6.7,-6.5,6.7c-.4,0,-.8,-.1,-1.2,-.2h.6V82.7h6.9v-.2c.1,.4,.2,.9,.2,1.3Z" class="gbv"/>
<path d="M82.3,83.8c0,3.6,-2.8,6.5,-6.3,6.5c-.4,0,-.8,-.1,-1.2,-.2h.6V82.7h6.7v-.2c.1,.4,.2,.9,.2,1.3Z" class="gbw"/>
<path d="M82.1,83.8C82.1,87.3,79.4,90,76,90c-.4,0,-.8,0,-1.2,-.1h.6V82.7h6.5v-.1c.1,.4,.2,.8,.2,1.2Z" class="gbx"/>
<path d="M81.9,83.8c0,3.3,-2.6,6,-5.9,6c-.4,0,-.7,0,-1.1,-.1h.5v-7h6V81.5c.3,.7,.5,1.5,.5,2.3Z" class="gby"/>
<path d="M81.6,83.8c0,3.2,-2.5,5.8,-5.6,5.8c-.3,0,-.7,0,-1.1,-.1h.5V82.7h5.8V81.6c.3,.7,.4,1.4,.4,2.2Z" class="gbz"/>
<path d="M81.4,83.8c0,3.1,-2.4,5.6,-5.4,5.6c-.3,0,-.7,0,-1,-.1h.4V82.7H81v-1c.3,.6,.4,1.4,.4,2.1Z" class="gc0"/>
<path d="M81.2,83.8c0,3,-2.3,5.4,-5.2,5.4c-.3,0,-.7,-.1,-1,-.1h.4V82.7h5.4v-1c.3,.7,.4,1.4,.4,2.1Z" class="gc1"/>
<path d="M81,83.8C81,86.7,78.8,89,76,89c-.6,0,-1.3,-.2,-1.9,-.4h1.3V82.7h5.2v-.9c.3,.6,.4,1.3,.4,2Z" class="gc2"/>
<path d="M80.8,83.8c0,2.7,-2.1,5,-4.8,5c-.6,0,-1.2,-.2,-1.8,-.4h1.2V82.7h5v-.8c.3,.6,.4,1.2,.4,1.9Z" class="gc3"/>
<path d="M80.6,83.8c0,2.6,-2,4.7,-4.6,4.7c-.6,0,-1.2,-.1,-1.7,-.3h1.1V82.7h4.9V82c.2,.6,.3,1.2,.3,1.8Z" class="gc4"/>
<path d="M80.4,83.8c0,2.5,-1.9,4.5,-4.4,4.5c-.6,0,-1.1,-.1,-1.6,-.3h1V82.7h4.7v-.6c.2,.5,.3,1.1,.3,1.7Z" class="gc5"/>
<path d="M80.2,83.8c0,2.4,-1.9,4.3,-4.2,4.3c-.5,0,-1.1,-.1,-1.6,-.3h1V82.7h4.5v-.5c.2,.5,.3,1,.3,1.6Z" class="gc6"/>
<path d="M80,83.8c0,2.3,-1.8,4.1,-4,4.1c-.5,0,-1,-.1,-1.5,-.3h.9V82.7h4.3v-.5c.2,.5,.3,1.1,.3,1.6Z" class="gc7"/>
<path d="M79.8,83.8c0,2.2,-1.7,3.9,-3.8,3.9c-.5,0,-1,-.1,-1.4,-.3h.8V82.7h4.1v-.4c.2,.5,.3,1,.3,1.5Z" class="gc8"/>
<path d="M79.6,83.8c0,2,-1.6,3.7,-3.6,3.7c-.4,0,-.9,-.1,-1.3,-.3h.7V82.7h3.9v-.3c.2,.4,.3,.9,.3,1.4Z" class="gc9"/>
<path d="M79.4,83.8c0,1.9,-1.5,3.5,-3.4,3.5c-.4,0,-.8,-.1,-1.2,-.3h.6V82.7h3.7v-.2c.2,.4,.3,.8,.3,1.3Z" class="gca"/>
<path d="M79.2,83.8C79.2,85.6,77.8,87,76,87c-.4,0,-.8,-.1,-1.2,-.2h.6V82.7h2.8V81.5c.6,.6,1,1.4,1,2.3Z" class="gcb"/>
<path d="M79,83.8c0,1.7,-1.3,3,-3,3c-.4,0,-.7,-.1,-1.1,-.2h.5V82.7h2.7v-1c.5,.5,.9,1.3,.9,2.1Z" class="gcc"/>
<path d="M78.7,83.8c0,1.6,-1.2,2.8,-2.7,2.8c-.7,0,-1.4,-.3,-1.9,-.8h1.3V82.7H78v-.8c.4,.5,.7,1.2,.7,1.9Z" class="gcd"/>
<path d="M78.5,83.8c0,1.4,-1.1,2.6,-2.5,2.6c-.6,0,-1.3,-.3,-1.7,-.8h1.1V82.7h2.4V82c.5,.5,.7,1.1,.7,1.8Z" class="gce"/>
<path d="M78.3,83.8c0,1.3,-1,2.4,-2.3,2.4c-.6,0,-1.2,-.3,-1.6,-.7h1V82.7H76V81.5c1.3,0,2.3,1,2.3,2.3Z" class="gcf"/>
<path d="M78.1,83.8C78.1,85,77.2,86,76,86c-.5,0,-1,-.3,-1.4,-.7h.8V82.7H76v-1c1.2,0,2.1,.9,2.1,2.1Z" class="gcg"/>
<path d="M77.9,83.8c0,1.1,-.8,2,-1.9,2c-1,0,-1.8,-.9,-1.8,-2c0,-1,.8,-1.9,1.8,-1.9c1.1,0,1.9,.9,1.9,1.9Z" class="gch"/>
<path d="M77.7,83.8c0,1,-.7,1.7,-1.7,1.7c-.9,0,-1.6,-.7,-1.6,-1.7c0,-.9,.7,-1.7,1.6,-1.7c1,0,1.7,.8,1.7,1.7Z" class="gci"/>
<path d="M77.5,83.8c0,.9,-.7,1.5,-1.5,1.5c-.8,0,-1.4,-.6,-1.4,-1.5c0,-.8,.6,-1.5,1.4,-1.5c.8,0,1.5,.7,1.5,1.5Z" class="gcj"/>
<path d="M77.3,83.8c0,.7,-.6,1.3,-1.3,1.3c-.6,0,-1.2,-.6,-1.2,-1.3c0,-.7,.6,-1.3,1.2,-1.3c.7,0,1.3,.6,1.3,1.3Z" class="gck"/>
<path d="M77.1,83.8c0,.6,-.5,1.1,-1.1,1.1c-.5,0,-1,-.5,-1,-1.1c0,-.6,.5,-1,1,-1c.6,0,1.1,.4,1.1,1Z" class="gcl"/>
<path d="M76.9,83.8c0,.5,-.4,.9,-.9,.9c-.4,0,-.8,-.4,-.8,-.9c0,-.5,.4,-.8,.8,-.8c.5,0,.9,.3,.9,.8Z" class="gcm"/>
<path d="M76.7,83.8c0,.4,-.3,.7,-.7,.7c-.3,0,-.6,-.3,-.6,-.7c0,-.3,.3,-.6,.6,-.6c.4,0,.7,.3,.7,.6Z" class="gcn"/>
</g>
<path d="M76.5,83.8c0,.3,-.2,.5,-.5,.5c-.2,0,-.4,-.2,-.4,-.5c0,-.2,.2,-.4,.4,-.4c.3,0,.5,.2,.5,.4Z" class="gco"/>
<path d="M76.3,83.8c0,.1,-.1,.2,-.3,.2c-.1,0,-.2,-.1,-.2,-.2c0,-.1,.1,-.2,.2,-.2c.2,0,.3,.1,.3,.2Z" class="gcp"/>
<path d="M85.8,114.9H56.2c-.2,0,-.3,-.1,-.3,-.3c0,-.2,.1,-.4,.3,-.4H85.8c.2,0,.4,.2,.4,.4c0,.2,-.2,.3,-.4,.3Z" class="g1"/>
<image clip-path="url(#c4)" preserveAspectRatio="none" x="167" y="64" width="169" height="67" xlink:href="img/2.jpg"/>
<path d="M16.6,171.9c.1,0,.1,.1,.1,.2c0,.1,0,.2,0,.3c.2,.4,.4,.8,.7,1.2c.1,.2,.3,.4,.5,.6c.4,.4,.8,.7,1.3,1c.3,.2,.7,.3,1.1,.4c.2,0,.3,-.1,.5,-.2c.2,-.2,.4,-.4,.6,-.6c0,0,0,-.1,0,-.1c.1,-.1,.1,-.3,-.1,-.3c-.3,-.2,-.6,-.4,-.9,-.6c-.1,-.1,-.3,-.1,-.4,.1c-.1,0,-.2,.1,-.3,.2h-.1c-.1,0,-.2,0,-.2,-.1c-.5,-.2,-.8,-.6,-1.1,-1c-.1,-.1,-.2,-.2,-.2,-.4c-.1,0,0,-.1,0,-.1c.1,-.1,.2,-.2,.2,-.2c.1,-.1,.2,-.3,.1,-.4c-.1,-.2,-.2,-.5,-.4,-.7c0,-.1,-.1,-.2,-.1,-.3c-.1,-.2,-.3,-.2,-.4,-.1c-.2,.2,-.5,.4,-.7,.6c-.1,.2,-.2,.3,-.2,.5m2.3,-3.3h.3c.1,0,.2,.1,.3,.1c.4,0,.9,.1,1.4,.3c.6,.3,1.1,.7,1.6,1.2c.5,.6,.8,1.3,1,2c.1,.5,.1,1,0,1.4c0,.6,-.2,1.1,-.5,1.7c-.2,.5,-.6,.9,-1.1,1.3c-.6,.5,-1.2,.8,-2,1c-.6,.1,-1.1,.1,-1.7,0c-.4,-.1,-.8,-.2,-1.1,-.4c-.9,-.5,-1.6,-1.1,-2,-2c-.4,-.7,-.6,-1.4,-.5,-2.2c0,-.4,0,-.8,.2,-1.1c.1,-.4,.2,-.8,.4,-1.1c.3,-.5,.6,-.8,1,-1.2c.5,-.4,1.1,-.6,1.7,-.8c.3,-.1,.6,-.1,1,-.2Z" class="g2"/>
<path d="M17.4,183.9c0,.8,0,1.6,0,2.5c0,.1,.1,.3,.2,.4c.1,.2,.4,.3,.6,.3c.8,0,1.5,0,2.3,0c0,0,.1,0,.1,0c.4,-.1,.7,-.4,.7,-.8c0,-.3,0,-.7,0,-1.1v-3.8c0,-.1,-.1,-.3,-.2,-.4c-.1,-.2,-.4,-.3,-.6,-.3c-.8,0,-1.5,0,-2.3,0h-.1c-.4,0,-.7,.3,-.7,.8c.1,.8,0,1.6,0,2.4m1.9,4.4c-2.5,.1,-4.5,-2,-4.5,-4.5c0,-2.4,2,-4.5,4.5,-4.5c2.5,0,4.5,2.1,4.5,4.5c0,2.5,-2,4.6,-4.5,4.5Z" class="g2"/>
<path d="M21,183.4c0,.6,0,1.2,0,1.8c0,.3,-.2,.6,-.5,.6c-.1,.1,-.2,.1,-.3,.1c-.6,0,-1.2,0,-1.8,0c-.2,0,-.4,-.1,-.6,-.3c0,-.1,-.1,-.2,-.1,-.3c0,-1.3,0,-2.6,0,-3.8c0,-.3,.2,-.5,.4,-.6c.1,0,.2,0,.3,0h1.9c.2,0,.3,0,.5,.1c.1,.2,.2,.3,.2,.5c0,.6,0,1.2,0,1.9Z" class="g2"/>
<path d="M19.8,186.5c0,.2,-.2,.3,-.4,.3c-.2,0,-.3,-.1,-.3,-.3c0,-.2,.1,-.4,.3,-.4c.2,0,.4,.2,.4,.4Z" class="g2"/>
<path d="M18,200.5c-.7,.2,-1.3,.6,-1.8,1q0,.1,0,.1c.3,.2,.6,.3,.9,.4c.1,.1,.1,0,.2,-.1c.1,-.4,.4,-.9,.7,-1.3v-.1m0,8v-.1c-.3,-.4,-.6,-.8,-.7,-1.4q-.1,0,-.2,0c-.3,.1,-.6,.2,-.9,.4v.1c.5,.4,1,.7,1.6,.9c.1,0,.1,.1,.2,.1m2.1,-8c.4,.5,.6,1,.8,1.5q0,.1,.1,0c.3,-.1,.6,-.2,.9,-.4q.1,0,0,-.1c-.3,-.3,-.7,-.5,-1.1,-.7c-.2,-.1,-.5,-.2,-.7,-.3m0,8c0,0,.1,0,.1,0c.6,-.2,1.2,-.5,1.7,-1q.1,-.1,0,-.1c-.3,-.2,-.6,-.3,-.9,-.4q-.1,0,-.1,0c-.2,.6,-.4,1.1,-.8,1.5m-.8,-7.1c0,.3,0,.5,0,.8q0,.1,.1,.1c.3,0,.7,0,1.1,-.1c0,0,0,-.1,0,-.1c-.1,-.4,-.3,-.8,-.6,-1.2c-.1,-.2,-.3,-.3,-.5,-.4q-.1,-.1,-.1,0Zm0,6.2c0,.3,0,.6,0,.9q0,.1,.1,.1q.1,-.1,.2,-.2c.5,-.4,.7,-.9,.9,-1.5c0,0,0,-.1,0,-.1c-.4,0,-.8,-.1,-1.1,-.1q-.1,0,-.1,.1c0,.3,0,.6,0,.8m-.4,-6.2v-.9q0,-.1,-.1,0c-.2,0,-.3,.1,-.4,.2c-.4,.4,-.6,.9,-.8,1.4q0,.1,.1,.1c.4,.1,.7,.1,1.1,.1q.1,0,.1,-.1c0,-.3,0,-.5,0,-.8m0,6.3c0,-.3,0,-.6,0,-.9q0,-.1,-.1,-.1c-.4,0,-.7,.1,-1.1,.1c-.1,0,-.1,.1,-.1,.1c.2,.5,.4,.9,.6,1.2c.2,.2,.4,.4,.6,.5q.1,0,.1,-.1c0,-.3,0,-.6,0,-.8m.4,-2.2v.6q0,.2,.1,.2c.4,0,.8,.1,1.1,.2q.1,0,.2,-.1c.1,-.5,.1,-1.1,.2,-1.6c0,-.1,-.1,-.1,-.1,-.1c-.5,0,-1,0,-1.4,0q-.1,0,-.1,.1c0,.2,0,.5,0,.7m0,-2c0,.3,0,.5,0,.7q0,.1,.1,.1c.4,0,.9,0,1.4,0c0,0,.1,0,.1,-.1c-.1,-.1,-.1,-.2,-.1,-.4c0,-.4,-.1,-.8,-.1,-1.2c-.1,0,-.1,-.1,-.2,0c-.3,0,-.7,.1,-1.1,.1q-.1,0,-.1,.1c0,.3,0,.5,0,.7m-1.2,1.2c-.3,0,-.5,0,-.7,0q-.1,0,-.1,.1c0,.2,0,.3,0,.5c0,.4,.1,.7,.2,1.1q0,.1,.1,.1c.1,-.1,.2,-.1,.3,-.1c.3,-.1,.6,-.1,.9,-.1q.1,0,.1,-.1c0,-.5,0,-.9,0,-1.4q0,-.1,-.1,-.1c-.2,0,-.5,0,-.7,0m0,-.4c.2,0,.4,0,.7,0q.1,0,.1,-.1c0,-.5,0,-.9,0,-1.4c0,-.1,-.1,-.1,-.1,-.1c-.4,0,-.8,-.1,-1.2,-.1q-.1,-.1,-.1,.1c-.1,.5,-.2,1,-.2,1.5q0,.1,.1,.1Zm-2.2,0c.3,0,.6,0,.9,0q.1,0,.1,-.1c0,-.2,0,-.5,0,-.7c.1,-.3,.1,-.7,.2,-1q0,-.1,0,-.1c-.4,-.1,-.8,-.3,-1.2,-.5l-.1,.1c0,0,-.1,.1,-.1,.2c-.4,.6,-.7,1.2,-.7,2q0,.1,.1,.1Zm0,.4c-.3,0,-.6,0,-.8,0c-.1,0,-.2,0,-.1,.1c0,.1,0,.2,0,.3c.1,.7,.4,1.4,.8,1.9q.1,.1,.2,.1c.3,-.2,.7,-.4,1,-.5q.1,0,.1,-.1c-.1,-.6,-.2,-1.1,-.2,-1.7q0,-.1,-.1,-.1c-.3,0,-.6,0,-.9,0m7.3,.1c0,-.1,-.1,-.1,-.1,-.1H21.4q-.2,0,-.2,.1c0,.6,0,1.1,-.2,1.7q0,.1,.1,.1c.4,.1,.7,.3,1.1,.5q.1,0,.1,-.1c.3,-.3,.5,-.6,.6,-1c.2,-.4,.3,-.8,.3,-1.2m-1,-.5c.3,0,.6,0,.9,0q.1,0,.1,-.1c0,-.2,-.1,-.4,-.1,-.6c-.1,-.6,-.4,-1.1,-.8,-1.6q0,-.1,-.1,-.1c-.4,.2,-.7,.4,-1.1,.5q-.1,0,-.1,.1c.2,.6,.2,1.1,.2,1.7c0,.1,.1,.1,.2,.1c.2,0,.5,0,.8,0m1.4,.2c0,2.5,-2,4.5,-4.5,4.5c-2.5,0,-4.5,-2,-4.5,-4.5c0,-2.5,1.9,-4.5,4.5,-4.5c2.5,0,4.5,2,4.5,4.5Z" class="g2"/>
<path d="M284.6,159.8c-.6,0,-1.2,-.5,-1.2,-1.1c0,-.6,.6,-1.1,1.2,-1.1c.6,0,1.1,.5,1.1,1.1c0,.6,-.5,1.1,-1.1,1.1m.2,-3.6c-.1,0,-.2,0,-.2,0h-.1c-1.9,0,-3.1,2,-2.3,3.8c.7,1.5,1.4,3,2.1,4.5c.1,.3,.5,.3,.6,0c.7,-1.5,1.4,-3,2.1,-4.5c.8,-1.7,-.4,-3.7,-2.2,-3.8Z" class="g2"/>
<path d="M283.1,164.7c.2,-.1,.5,-.1,.7,-.2c-.1,-.1,-.1,-.2,-.2,-.4c-.2,0,-.5,.1,-.7,.2c-.5,.1,-.8,.4,-.8,.7c0,.3,.3,.5,.8,.7c.5,.1,1.1,.2,1.7,.2c.6,0,1.2,-.1,1.6,-.2c.6,-.2,.9,-.4,.9,-.7c0,-.3,-.3,-.6,-.9,-.7c-.2,-.1,-.4,-.1,-.6,-.2c-.1,.2,-.2,.3,-.2,.4c.2,.1,.5,.1,.7,.2c.4,.1,.5,.2,.5,.3c0,0,-.1,.1,-.5,.2c-.4,.1,-1,.2,-1.5,.2c-.6,0,-1.1,-.1,-1.5,-.2c-.4,-.1,-.5,-.2,-.5,-.2c0,-.1,.1,-.2,.5,-.3Z" class="g2"/>
<path d="M280.9,165.2c0,.5,.4,1,1.1,1.3c.7,.3,1.6,.5,2.6,.5c1,0,1.9,-.2,2.5,-.5c.8,-.3,1.2,-.8,1.2,-1.3c0,-.6,-.4,-1,-1.2,-1.4c-.3,-.1,-.8,-.3,-1.2,-.3c-.1,.1,-.2,.3,-.3,.5c.5,.1,.9,.2,1.3,.4c.5,.2,.8,.5,.8,.8c0,.2,-.3,.5,-.8,.7c-.6,.3,-1.4,.5,-2.3,.5c-.9,0,-1.7,-.2,-2.3,-.5c-.5,-.2,-.8,-.5,-.8,-.7c0,-.3,.3,-.6,.8,-.8c.3,-.2,.8,-.3,1.3,-.4c-.1,-.2,-.2,-.4,-.3,-.5c-.5,0,-.9,.2,-1.3,.3c-.7,.4,-1.1,.8,-1.1,1.4Z" class="g2"/>
</svg>